<svg width="1080" height="226" viewBox="0 0 1080 226" fill="none" xmlns="http://www.w3.org/2000/svg">
<rect width="1080" height="226" fill="#1E1E1E"/>
<g clip-path="url(#clip0_0_1)">
<path fill-rule="evenodd" clip-rule="evenodd" d="M190.977 81.5964C190.977 87.0353 157.835 92.1566 104.924 92.1566C52.0131 92.1566 22.3298 87.3888 22.3298 81.9499C22.3298 76.511 52.0131 72.4503 104.924 72.4503C157.835 72.4503 190.977 76.1575 190.977 81.5964Z" fill="#FF6600" fill-opacity="0.5"/>
<path fill-rule="evenodd" clip-rule="evenodd" d="M124.154 54.9227L141.088 93.5968C141.088 93.5968 117.268 116.485 109.275 118.637C103.499 114.422 88.0061 81.4187 92.4449 77.7147C96.8837 74.0106 110.978 55.3756 124.154 54.9227Z" fill="#7573AE" fill-opacity="0.15" stroke="black" stroke-width="1.33333"/>
<path fill-rule="evenodd" clip-rule="evenodd" d="M141.088 93.5968C141.088 93.5968 112.829 120.189 109.646 119.081C106.462 117.973 133.048 137.201 137.931 133.126C142.814 129.052 161.604 111.866 163.156 108.312C164.708 104.758 143.307 91.7448 141.088 93.5968Z" fill="#7573AE" fill-opacity="0.15" stroke="black" stroke-width="1.33333"/>
<path fill-rule="evenodd" clip-rule="evenodd" d="M124.407 55.561C125.372 58.5212 138.565 85.1601 140.717 93.1529C143.16 93.3734 157.835 98.5875 163.317 106.06C163.691 111.019 156.033 82.6317 154.324 74.2684C146.996 73.6071 136.178 57.0335 124.407 55.561Z" fill="#7573AE" fill-opacity="0.15" stroke="black" stroke-width="1.33333"/>
<path fill-rule="evenodd" clip-rule="evenodd" d="M197.9 192.66C197.9 199.839 159.227 208.935 109.562 208.935C59.8961 208.935 19.588 196.568 19.588 189.39C19.588 182.211 58.588 182.925 108.253 182.925C157.919 182.925 197.9 185.481 197.9 192.66Z" fill="#7573AE" fill-opacity="0.14902" stroke="black" stroke-width="2.5" stroke-linejoin="round"/>
<path fill-rule="evenodd" clip-rule="evenodd" d="M26.0298 80.6631L21.2499 165.848C32.7506 171.677 63.1851 175.007 108.06 175.936C137.976 174.678 175.733 172.606 196.647 163.998C198.784 162.321 191.212 80.9696 191.212 80.9696C183.733 86.001 153.268 89.953 103.051 90.3723C54.357 90.7258 26.0298 85.6944 26.0298 80.6631Z" fill="#FF6600" fill-opacity="0.619898"/>
<path fill-rule="evenodd" clip-rule="evenodd" d="M194.527 162.63C194.527 169.809 155.876 175.635 108.253 175.635C60.6303 175.635 21.9798 169.809 21.9798 162.63C21.9798 155.451 60.6303 149.625 108.253 149.625C155.876 149.625 194.527 155.451 194.527 162.63Z" fill="#7573AE" fill-opacity="0.14902" stroke="black" stroke-width="2.5" stroke-linejoin="round"/>
<path fill-rule="evenodd" clip-rule="evenodd" d="M26.6701 30.3546L19.6448 191.919C20.5277 196.843 79.4302 209.47 116.51 208.239C141.23 206.392 181.255 205.773 198.029 194.694C199.795 192.232 190.031 31.3236 190.031 31.3236C183.851 38.7098 150.058 44.5114 108.564 45.1269C68.836 45.1269 26.6701 37.7408 26.6701 30.3546Z" fill="#7573AE" fill-opacity="0.15" stroke="black" stroke-width="2.5" stroke-linejoin="round"/>
<path fill-rule="evenodd" clip-rule="evenodd" d="M28.7719 29.9934C27.5226 45.1748 74.4452 49.2682 81.5314 46.783C84.4221 46.2049 79.4262 196.076 78.6873 200.874C70.7015 201.094 28.2029 193.728 21.7188 188.006L28.7719 29.9934Z" fill="url(#paint0_linear_0_1)"/>
<path fill-rule="evenodd" clip-rule="evenodd" d="M189.145 31.8434C190.395 47.0248 143.472 51.1182 136.386 48.633C133.495 48.0549 138.491 197.926 139.23 202.724C147.216 202.944 189.714 195.578 196.198 189.856L189.145 31.8434Z" fill="url(#paint1_linear_0_1)"/>
<path fill-rule="evenodd" clip-rule="evenodd" d="M189.234 31.8968C189.234 39.8813 152.88 46.3614 108.087 46.3614C63.2947 46.3614 26.941 39.8813 26.941 31.8968C26.941 23.9123 63.2947 17.4322 108.087 17.4322C152.88 17.4322 189.234 23.9123 189.234 31.8968Z" fill="#7573AE" fill-opacity="0.15" stroke="black" stroke-width="2.5" stroke-linejoin="round"/>
<path d="M400.344 163H396.438C394.224 163 392.401 162.609 390.969 161.828C388.625 160.526 385.891 155.904 382.766 147.961L361.672 93.0781L335.891 163H331.984C329.771 163 327.948 162.609 326.516 161.828C324.172 160.526 321.438 155.904 318.312 147.961L280.812 51.0859H271.047V45.8125H323.977V51.0859H308.352L339.016 136.438L358.156 84.2891L343.312 45.8125H388.625V51.0859L373 50.8906L403.273 134.68L430.812 51.0859H415.188V45.8125H447.414V51.0859H437.648L400.344 163ZM509.914 163H451.32V157.727H466.945V51.0859H451.32V45.8125H509.914V51.0859H494.289V99.7188H543.898V51.0859H528.273V45.8125H586.867V51.0859H571.242V157.727H581.594C584.328 157.987 586.086 159.745 586.867 163H528.273V157.727H543.898V105.578H494.289V157.727H504.641C507.375 157.987 509.133 159.745 509.914 163ZM653.273 163H594.68V157.727H610.305V51.0859H594.68V45.8125H653.273V51.0859H637.648V157.727H648C650.734 157.987 652.492 159.745 653.273 163ZM758.156 130.383C758.156 138.977 755.096 146.268 748.977 152.258C740.122 160.721 727.427 164.953 710.891 164.953C696.698 164.953 684.589 161.633 674.562 154.992C674.562 157.206 674.432 158.964 674.172 160.266C673.521 162.349 671.438 163.391 667.922 163.391V121.984H675.539C676.06 128.885 677.492 135.005 679.836 140.344C685.435 152.974 695.135 159.289 708.938 159.289C712.583 159.289 715.904 158.768 718.898 157.727C727.232 154.602 731.398 148.352 731.398 138.977C731.398 136.242 730.812 133.573 729.641 130.969C726.906 125.5 719.94 119.836 708.742 113.977C696.242 107.596 689.211 103.885 687.648 102.844C675.279 95.1615 669.094 85.9167 669.094 75.1094C669.094 67.8177 671.633 61.5026 676.711 56.1641C684.654 47.9609 696.503 43.8594 712.258 43.8594C724.237 43.8594 735.63 46.3984 746.438 51.4766C746.438 50.3047 746.503 49.263 746.633 48.3516C747.284 45.8776 749.432 44.6406 753.078 44.6406V79.9922H745.461C745.331 72.9609 743.638 66.9062 740.383 61.8281C735.044 53.7552 727.036 49.7188 716.359 49.7188C713.625 49.7188 711.021 50.1094 708.547 50.8906C701.125 53.3646 697.414 58.4427 697.414 66.125C697.414 69.1198 698.065 71.9844 699.367 74.7188C702.102 80.3177 708.938 85.9818 719.875 91.7109C731.854 98.0911 738.69 101.737 740.383 102.648C752.232 110.331 758.156 119.576 758.156 130.383ZM828.664 163H770.07V157.727H785.695V51.0859H770.07V45.8125H828.664V51.0859H813.039V101.477L868.898 51.0859H853.273V45.8125H889.406C889.406 46.4635 889.341 47.1146 889.211 47.7656C888.951 49.9792 887.258 51.0859 884.133 51.0859C883.352 51.0859 882.505 51.151 881.594 51.2812C878.99 51.9323 874.758 54.9271 868.898 60.2656L839.211 87.0234L886.867 157.727H888.625C891.359 157.987 893.117 159.745 893.898 163L856.594 163.195L819.289 105.188L813.039 110.852V157.727H823.391C826.125 157.987 827.883 159.745 828.664 163ZM981.984 163H921.438V157.727H938.039V113.391L902.688 51.0859H893.508V45.8125H948.195V51.0859H933.352L961.867 105.188L988.234 51.0859H972.609V45.8125H1006.98C1006.72 48.5469 1004.97 50.3047 1001.71 51.0859C997.674 51.2161 994.419 53.0391 991.945 56.5547L965.383 112.023V157.727H976.711C979.445 157.987 981.203 159.745 981.984 163Z" fill="black"/>
<path d="M400.344 163V166H402.506L403.19 163.949L400.344 163ZM390.969 161.828L389.512 164.451L389.522 164.456L389.532 164.462L390.969 161.828ZM382.766 147.961L379.965 149.037L379.97 149.048L379.974 149.059L382.766 147.961ZM361.672 93.0781L364.472 92.0019L361.614 84.5643L358.857 92.0403L361.672 93.0781ZM335.891 163V166H337.982L338.705 164.038L335.891 163ZM326.516 161.828L325.059 164.451L325.069 164.456L325.079 164.462L326.516 161.828ZM318.312 147.961L315.515 149.044L315.518 149.052L315.521 149.059L318.312 147.961ZM280.812 51.0859L283.61 50.003L282.868 48.0859H280.812V51.0859ZM271.047 51.0859H268.047V54.0859H271.047V51.0859ZM271.047 45.8125V42.8125H268.047V45.8125H271.047ZM323.977 45.8125H326.977V42.8125H323.977V45.8125ZM323.977 51.0859V54.0859H326.977V51.0859H323.977ZM308.352 51.0859V48.0859H304.086L305.528 52.1003L308.352 51.0859ZM339.016 136.438L336.192 137.452L338.985 145.226L341.832 137.471L339.016 136.438ZM358.156 84.2891L360.973 85.3228L361.362 84.2627L360.955 83.2093L358.156 84.2891ZM343.312 45.8125V42.8125H338.94L340.514 46.8923L343.312 45.8125ZM388.625 45.8125H391.625V42.8125H388.625V45.8125ZM388.625 51.0859L388.588 54.0857L391.625 54.1237V51.0859H388.625ZM373 50.8906L373.037 47.8909L368.707 47.8367L370.179 51.91L373 50.8906ZM403.273 134.68L400.452 135.699L403.404 143.87L406.123 135.618L403.273 134.68ZM430.812 51.0859L433.662 52.0246L434.959 48.0859H430.812V51.0859ZM415.188 51.0859H412.188V54.0859H415.188V51.0859ZM415.188 45.8125V42.8125H412.188V45.8125H415.188ZM447.414 45.8125H450.414V42.8125H447.414V45.8125ZM447.414 51.0859V54.0859H450.414V51.0859H447.414ZM437.648 51.0859V48.0859H435.486L434.802 50.1373L437.648 51.0859ZM400.344 160H396.438V166H400.344V160ZM396.438 160C394.555 160 393.268 159.665 392.405 159.194L389.532 164.462C391.534 165.554 393.893 166 396.438 166V160ZM392.426 159.206C391.992 158.965 391.06 158.085 389.742 155.857C388.489 153.739 387.091 150.761 385.557 146.863L379.974 149.059C381.565 153.103 383.097 156.408 384.578 158.912C385.994 161.306 387.602 163.39 389.512 164.451L392.426 159.206ZM385.566 146.885L364.472 92.0019L358.872 94.1544L379.965 149.037L385.566 146.885ZM358.857 92.0403L333.076 161.962L338.705 164.038L364.487 94.116L358.857 92.0403ZM335.891 160H331.984V166H335.891V160ZM331.984 160C330.102 160 328.815 159.665 327.952 159.194L325.079 164.462C327.081 165.554 329.44 166 331.984 166V160ZM327.973 159.206C327.539 158.965 326.607 158.085 325.289 155.857C324.036 153.739 322.638 150.761 321.104 146.863L315.521 149.059C317.112 153.103 318.644 156.408 320.125 158.912C321.541 161.306 323.149 163.39 325.059 164.451L327.973 159.206ZM321.11 146.878L283.61 50.003L278.015 52.1689L315.515 149.044L321.11 146.878ZM280.812 48.0859H271.047V54.0859H280.812V48.0859ZM274.047 51.0859V45.8125H268.047V51.0859H274.047ZM271.047 48.8125H323.977V42.8125H271.047V48.8125ZM320.977 45.8125V51.0859H326.977V45.8125H320.977ZM323.977 48.0859H308.352V54.0859H323.977V48.0859ZM305.528 52.1003L336.192 137.452L341.839 135.423L311.175 50.0716L305.528 52.1003ZM341.832 137.471L360.973 85.3228L355.34 83.2554L336.199 135.404L341.832 137.471ZM360.955 83.2093L346.111 44.7327L340.514 46.8923L355.357 85.3689L360.955 83.2093ZM343.312 48.8125H388.625V42.8125H343.312V48.8125ZM385.625 45.8125V51.0859H391.625V45.8125H385.625ZM388.662 48.0862L373.037 47.8909L372.963 53.8904L388.588 54.0857L388.662 48.0862ZM370.179 51.91L400.452 135.699L406.095 133.66L375.821 49.8712L370.179 51.91ZM406.123 135.618L433.662 52.0246L427.963 50.1472L400.424 133.741L406.123 135.618ZM430.812 48.0859H415.188V54.0859H430.812V48.0859ZM418.188 51.0859V45.8125H412.188V51.0859H418.188ZM415.188 48.8125H447.414V42.8125H415.188V48.8125ZM444.414 45.8125V51.0859H450.414V45.8125H444.414ZM447.414 48.0859H437.648V54.0859H447.414V48.0859ZM434.802 50.1373L397.498 162.051L403.19 163.949L440.494 52.0346L434.802 50.1373ZM509.914 163V166H513.719L512.831 162.3L509.914 163ZM451.32 163H448.32V166H451.32V163ZM451.32 157.727V154.727H448.32V157.727H451.32ZM466.945 157.727V160.727H469.945V157.727H466.945ZM466.945 51.0859H469.945V48.0859H466.945V51.0859ZM451.32 51.0859H448.32V54.0859H451.32V51.0859ZM451.32 45.8125V42.8125H448.32V45.8125H451.32ZM509.914 45.8125H512.914V42.8125H509.914V45.8125ZM509.914 51.0859V54.0859H512.914V51.0859H509.914ZM494.289 51.0859V48.0859H491.289V51.0859H494.289ZM494.289 99.7188H491.289V102.719H494.289V99.7188ZM543.898 99.7188V102.719H546.898V99.7188H543.898ZM543.898 51.0859H546.898V48.0859H543.898V51.0859ZM528.273 51.0859H525.273V54.0859H528.273V51.0859ZM528.273 45.8125V42.8125H525.273V45.8125H528.273ZM586.867 45.8125H589.867V42.8125H586.867V45.8125ZM586.867 51.0859V54.0859H589.867V51.0859H586.867ZM571.242 51.0859V48.0859H568.242V51.0859H571.242ZM571.242 157.727H568.242V160.727H571.242V157.727ZM581.594 157.727L581.878 154.74L581.736 154.727H581.594V157.727ZM586.867 163V166H590.672L589.784 162.3L586.867 163ZM528.273 163H525.273V166H528.273V163ZM528.273 157.727V154.727H525.273V157.727H528.273ZM543.898 157.727V160.727H546.898V157.727H543.898ZM543.898 105.578H546.898V102.578H543.898V105.578ZM494.289 105.578V102.578H491.289V105.578H494.289ZM494.289 157.727H491.289V160.727H494.289V157.727ZM504.641 157.727L504.925 154.74L504.783 154.727H504.641V157.727ZM509.914 160H451.32V166H509.914V160ZM454.32 163V157.727H448.32V163H454.32ZM451.32 160.727H466.945V154.727H451.32V160.727ZM469.945 157.727V51.0859H463.945V157.727H469.945ZM466.945 48.0859H451.32V54.0859H466.945V48.0859ZM454.32 51.0859V45.8125H448.32V51.0859H454.32ZM451.32 48.8125H509.914V42.8125H451.32V48.8125ZM506.914 45.8125V51.0859H512.914V45.8125H506.914ZM509.914 48.0859H494.289V54.0859H509.914V48.0859ZM491.289 51.0859V99.7188H497.289V51.0859H491.289ZM494.289 102.719H543.898V96.7188H494.289V102.719ZM546.898 99.7188V51.0859H540.898V99.7188H546.898ZM543.898 48.0859H528.273V54.0859H543.898V48.0859ZM531.273 51.0859V45.8125H525.273V51.0859H531.273ZM528.273 48.8125H586.867V42.8125H528.273V48.8125ZM583.867 45.8125V51.0859H589.867V45.8125H583.867ZM586.867 48.0859H571.242V54.0859H586.867V48.0859ZM568.242 51.0859V157.727H574.242V51.0859H568.242ZM571.242 160.727H581.594V154.727H571.242V160.727ZM581.309 160.713C582.06 160.785 582.508 161.028 582.842 161.362C583.216 161.736 583.645 162.43 583.95 163.7L589.784 162.3C589.308 160.315 588.468 158.502 587.084 157.119C585.66 155.694 583.862 154.929 581.878 154.74L581.309 160.713ZM586.867 160H528.273V166H586.867V160ZM531.273 163V157.727H525.273V163H531.273ZM528.273 160.727H543.898V154.727H528.273V160.727ZM546.898 157.727V105.578H540.898V157.727H546.898ZM543.898 102.578H494.289V108.578H543.898V102.578ZM491.289 105.578V157.727H497.289V105.578H491.289ZM494.289 160.727H504.641V154.727H494.289V160.727ZM504.356 160.713C505.107 160.785 505.555 161.028 505.888 161.362C506.263 161.736 506.692 162.43 506.997 163.7L512.831 162.3C512.355 160.315 511.515 158.502 510.131 157.119C508.707 155.694 506.909 154.929 504.925 154.74L504.356 160.713ZM653.273 163V166H657.079L656.191 162.3L653.273 163ZM594.68 163H591.68V166H594.68V163ZM594.68 157.727V154.727H591.68V157.727H594.68ZM610.305 157.727V160.727H613.305V157.727H610.305ZM610.305 51.0859H613.305V48.0859H610.305V51.0859ZM594.68 51.0859H591.68V54.0859H594.68V51.0859ZM594.68 45.8125V42.8125H591.68V45.8125H594.68ZM653.273 45.8125H656.273V42.8125H653.273V45.8125ZM653.273 51.0859V54.0859H656.273V51.0859H653.273ZM637.648 51.0859V48.0859H634.648V51.0859H637.648ZM637.648 157.727H634.648V160.727H637.648V157.727ZM648 157.727L648.284 154.74L648.143 154.727H648V157.727ZM653.273 160H594.68V166H653.273V160ZM597.68 163V157.727H591.68V163H597.68ZM594.68 160.727H610.305V154.727H594.68V160.727ZM613.305 157.727V51.0859H607.305V157.727H613.305ZM610.305 48.0859H594.68V54.0859H610.305V48.0859ZM597.68 51.0859V45.8125H591.68V51.0859H597.68ZM594.68 48.8125H653.273V42.8125H594.68V48.8125ZM650.273 45.8125V51.0859H656.273V45.8125H650.273ZM653.273 48.0859H637.648V54.0859H653.273V48.0859ZM634.648 51.0859V157.727H640.648V51.0859H634.648ZM637.648 160.727H648V154.727H637.648V160.727ZM647.716 160.713C648.466 160.785 648.915 161.028 649.248 161.362C649.622 161.736 650.051 162.43 650.356 163.7L656.191 162.3C655.714 160.315 654.874 158.502 653.49 157.119C652.066 155.694 650.268 154.929 648.284 154.74L647.716 160.713ZM748.977 152.258L751.05 154.426L751.062 154.414L751.075 154.402L748.977 152.258ZM674.562 154.992L676.219 152.491L671.562 149.407V154.992H674.562ZM674.172 160.266L677.035 161.16L677.083 161.009L677.114 160.854L674.172 160.266ZM667.922 163.391H664.922V166.391H667.922V163.391ZM667.922 121.984V118.984H664.922V121.984H667.922ZM675.539 121.984L678.531 121.759L678.321 118.984H675.539V121.984ZM679.836 140.344L677.089 141.55L677.093 141.56L679.836 140.344ZM718.898 157.727L719.884 160.56L719.918 160.548L719.952 160.536L718.898 157.727ZM729.641 130.969L732.376 129.738L732.351 129.682L732.324 129.627L729.641 130.969ZM708.742 113.977L710.133 111.318L710.12 111.311L710.106 111.305L708.742 113.977ZM687.648 102.844L689.313 100.348L689.272 100.321L689.231 100.295L687.648 102.844ZM676.711 56.1641L674.556 54.0772L674.546 54.0868L674.537 54.0964L676.711 56.1641ZM746.438 51.4766L745.162 54.1918L749.438 56.2009V51.4766H746.438ZM746.633 48.3516L743.732 47.5881L743.687 47.7557L743.663 47.9273L746.633 48.3516ZM753.078 44.6406H756.078V41.6406H753.078V44.6406ZM753.078 79.9922V82.9922H756.078V79.9922H753.078ZM745.461 79.9922L742.461 80.0477L742.516 82.9922H745.461V79.9922ZM740.383 61.8281L742.908 60.2091L742.897 60.1912L742.885 60.1733L740.383 61.8281ZM708.547 50.8906L707.643 48.0299L707.621 48.037L707.598 48.0446L708.547 50.8906ZM699.367 74.7188L696.659 76.0086L696.665 76.0219L696.671 76.0353L699.367 74.7188ZM719.875 91.7109L721.285 89.0631L721.276 89.0582L721.267 89.0534L719.875 91.7109ZM740.383 102.648L742.015 100.131L741.913 100.065L741.805 100.007L740.383 102.648ZM755.156 130.383C755.156 138.173 752.419 144.691 746.878 150.114L751.075 154.402C757.774 147.846 761.156 139.78 761.156 130.383H755.156ZM746.904 150.089C738.78 157.855 726.931 161.953 710.891 161.953V167.953C727.923 167.953 741.465 163.588 751.05 154.426L746.904 150.089ZM710.891 161.953C697.179 161.953 685.671 158.751 676.219 152.491L672.906 157.493C683.506 164.514 696.217 167.953 710.891 167.953V161.953ZM671.562 154.992C671.562 157.12 671.435 158.654 671.23 159.677L677.114 160.854C677.43 159.273 677.562 157.291 677.562 154.992H671.562ZM671.308 159.371C671.244 159.578 671.146 159.743 670.779 159.926C670.312 160.16 669.431 160.391 667.922 160.391V166.391C669.929 166.391 671.846 166.101 673.463 165.293C675.179 164.435 676.449 163.037 677.035 161.16L671.308 159.371ZM670.922 163.391V121.984H664.922V163.391H670.922ZM667.922 124.984H675.539V118.984H667.922V124.984ZM672.548 122.21C673.089 129.388 674.586 135.849 677.089 141.55L682.583 139.138C680.398 134.162 679.031 128.383 678.531 121.759L672.548 122.21ZM677.093 141.56C680.082 148.301 684.25 153.536 689.674 157.067C695.098 160.598 701.569 162.289 708.938 162.289V156.289C702.504 156.289 697.223 154.822 692.947 152.039C688.671 149.255 685.189 145.017 682.579 139.128L677.093 141.56ZM708.938 162.289C712.869 162.289 716.529 161.727 719.884 160.56L717.913 154.893C715.279 155.809 712.297 156.289 708.938 156.289V162.289ZM719.952 160.536C724.596 158.794 728.276 156.099 730.77 152.359C733.255 148.632 734.398 144.109 734.398 138.977H728.398C728.398 143.219 727.459 146.509 725.777 149.031C724.104 151.541 721.535 153.534 717.845 154.918L719.952 160.536ZM734.398 138.977C734.398 135.799 733.715 132.711 732.376 129.738L726.905 132.2C727.91 134.435 728.398 136.685 728.398 138.977H734.398ZM732.324 129.627C729.134 123.247 721.401 117.215 710.133 111.318L707.351 116.635C718.479 122.457 724.678 127.753 726.957 132.31L732.324 129.627ZM710.106 111.305C697.491 104.865 690.687 101.264 689.313 100.348L685.984 105.34C687.735 106.507 694.994 110.327 707.378 116.649L710.106 111.305ZM689.231 100.295C677.4 92.9476 672.094 84.5316 672.094 75.1094H666.094C666.094 87.3017 673.157 97.3753 686.066 105.392L689.231 100.295ZM672.094 75.1094C672.094 68.5963 674.331 63.0191 678.885 58.2317L674.537 54.0964C668.935 59.9861 666.094 67.0391 666.094 75.1094H672.094ZM678.866 58.2509C686.056 50.8252 696.999 46.8594 712.258 46.8594V40.8594C696.007 40.8594 683.251 45.0967 674.556 54.0772L678.866 58.2509ZM712.258 46.8594C723.797 46.8594 734.755 49.3018 745.162 54.1918L747.713 48.7614C736.506 43.4951 724.677 40.8594 712.258 40.8594V46.8594ZM749.438 51.4766C749.438 50.4104 749.497 49.5149 749.603 48.7758L743.663 47.9273C743.508 49.0111 743.438 50.199 743.438 51.4766H749.438ZM749.534 49.115C749.663 48.6255 749.874 48.3727 750.229 48.1682C750.683 47.907 751.55 47.6406 753.078 47.6406V41.6406C750.96 41.6406 748.93 41.9928 747.236 42.9685C745.442 44.001 744.254 45.6036 743.732 47.5881L749.534 49.115ZM750.078 44.6406V79.9922H756.078V44.6406H750.078ZM753.078 76.9922H745.461V82.9922H753.078V76.9922ZM748.46 79.9366C748.322 72.4439 746.51 65.8275 742.908 60.2091L737.857 63.4471C740.766 67.985 742.34 73.4779 742.461 80.0477L748.46 79.9366ZM742.885 60.1733C736.927 51.163 727.921 46.7188 716.359 46.7188V52.7188C726.152 52.7188 733.162 56.3474 737.88 63.4829L742.885 60.1733ZM716.359 46.7188C713.335 46.7188 710.425 47.1515 707.643 48.0299L709.45 53.7514C711.617 53.0673 713.915 52.7188 716.359 52.7188V46.7188ZM707.598 48.0446C703.442 49.43 700.079 51.6315 697.775 54.7846C695.467 57.9425 694.414 61.7912 694.414 66.125H700.414C700.414 62.7766 701.216 60.245 702.619 58.3247C704.026 56.3998 706.23 54.8252 709.496 53.7367L707.598 48.0446ZM694.414 66.125C694.414 69.5712 695.167 72.876 696.659 76.0086L702.076 73.4289C700.963 71.0928 700.414 68.6684 700.414 66.125H694.414ZM696.671 76.0353C699.852 82.5482 707.445 88.5868 718.483 94.3684L721.267 89.0534C710.43 83.3768 704.351 78.0872 702.063 73.4022L696.671 76.0353ZM718.465 94.3588C730.448 100.741 737.276 104.383 738.961 105.29L741.805 100.007C740.105 99.0914 733.26 95.441 721.285 89.0631L718.465 94.3588ZM738.751 105.166C750.04 112.485 755.156 120.898 755.156 130.383H761.156C761.156 118.253 754.423 108.176 742.015 100.131L738.751 105.166ZM828.664 163V166H832.469L831.581 162.3L828.664 163ZM770.07 163H767.07V166H770.07V163ZM770.07 157.727V154.727H767.07V157.727H770.07ZM785.695 157.727V160.727H788.695V157.727H785.695ZM785.695 51.0859H788.695V48.0859H785.695V51.0859ZM770.07 51.0859H767.07V54.0859H770.07V51.0859ZM770.07 45.8125V42.8125H767.07V45.8125H770.07ZM828.664 45.8125H831.664V42.8125H828.664V45.8125ZM828.664 51.0859V54.0859H831.664V51.0859H828.664ZM813.039 51.0859V48.0859H810.039V51.0859H813.039ZM813.039 101.477H810.039V108.223L815.049 103.704L813.039 101.477ZM868.898 51.0859L870.908 53.3135L876.703 48.0859H868.898V51.0859ZM853.273 51.0859H850.273V54.0859H853.273V51.0859ZM853.273 45.8125V42.8125H850.273V45.8125H853.273ZM889.406 45.8125H892.406V42.8125H889.406V45.8125ZM889.211 47.7656L886.269 47.1773L886.246 47.2954L886.231 47.4151L889.211 47.7656ZM881.594 51.2812L881.169 48.3114L881.016 48.3333L880.866 48.3708L881.594 51.2812ZM868.898 60.2656L870.907 62.494L870.913 62.4886L870.919 62.4832L868.898 60.2656ZM839.211 87.0234L837.202 84.795L835.267 86.5395L836.723 88.7002L839.211 87.0234ZM886.867 157.727L884.38 159.403L885.271 160.727H886.867V157.727ZM888.625 157.727L888.909 154.74L888.768 154.727H888.625V157.727ZM893.898 163L893.914 166L897.699 165.98L896.816 162.3L893.898 163ZM856.594 163.195L854.07 164.818L854.962 166.204L856.609 166.195L856.594 163.195ZM819.289 105.188L821.812 103.565L819.898 100.587L817.275 102.965L819.289 105.188ZM813.039 110.852L811.025 108.629L810.039 109.522V110.852H813.039ZM813.039 157.727H810.039V160.727H813.039V157.727ZM823.391 157.727L823.675 154.74L823.533 154.727H823.391V157.727ZM828.664 160H770.07V166H828.664V160ZM773.07 163V157.727H767.07V163H773.07ZM770.07 160.727H785.695V154.727H770.07V160.727ZM788.695 157.727V51.0859H782.695V157.727H788.695ZM785.695 48.0859H770.07V54.0859H785.695V48.0859ZM773.07 51.0859V45.8125H767.07V51.0859H773.07ZM770.07 48.8125H828.664V42.8125H770.07V48.8125ZM825.664 45.8125V51.0859H831.664V45.8125H825.664ZM828.664 48.0859H813.039V54.0859H828.664V48.0859ZM810.039 51.0859V101.477H816.039V51.0859H810.039ZM815.049 103.704L870.908 53.3135L866.889 48.8584L811.03 99.249L815.049 103.704ZM868.898 48.0859H853.273V54.0859H868.898V48.0859ZM856.273 51.0859V45.8125H850.273V51.0859H856.273ZM853.273 48.8125H889.406V42.8125H853.273V48.8125ZM886.406 45.8125C886.406 46.2621 886.361 46.7161 886.269 47.1773L892.153 48.354C892.321 47.5131 892.406 46.665 892.406 45.8125H886.406ZM886.231 47.4151C886.207 47.6197 886.164 47.6928 886.161 47.6972C886.159 47.7017 886.157 47.7033 886.155 47.7061C886.152 47.7092 886.138 47.7231 886.104 47.745C885.945 47.8493 885.406 48.0859 884.133 48.0859V54.0859C885.984 54.0859 887.855 53.7692 889.388 52.7668C891.06 51.6735 891.968 50.0037 892.19 48.1161L886.231 47.4151ZM884.133 48.0859C883.187 48.0859 882.197 48.1646 881.169 48.3114L882.018 54.2511C882.813 54.1375 883.516 54.0859 884.133 54.0859V48.0859ZM880.866 48.3708C879.006 48.836 876.924 50.0166 874.734 51.5668C872.48 53.162 869.856 55.3343 866.878 58.048L870.919 62.4832C873.8 59.8584 876.222 57.864 878.2 56.4644C880.241 55.0198 881.578 54.3776 882.321 54.1917L880.866 48.3708ZM866.89 58.0372L837.202 84.795L841.219 89.2519L870.907 62.494L866.89 58.0372ZM836.723 88.7002L884.38 159.403L889.355 156.05L841.699 85.3467L836.723 88.7002ZM886.867 160.727H888.625V154.727H886.867V160.727ZM888.341 160.713C889.091 160.785 889.54 161.028 889.873 161.362C890.247 161.736 890.676 162.43 890.981 163.7L896.816 162.3C896.339 160.315 895.499 158.502 894.115 157.119C892.691 155.694 890.893 154.929 888.909 154.74L888.341 160.713ZM893.883 160L856.578 160.195L856.609 166.195L893.914 166L893.883 160ZM859.117 161.573L821.812 103.565L816.766 106.81L854.07 164.818L859.117 161.573ZM817.275 102.965L811.025 108.629L815.054 113.075L821.304 107.41L817.275 102.965ZM810.039 110.852V157.727H816.039V110.852H810.039ZM813.039 160.727H823.391V154.727H813.039V160.727ZM823.106 160.713C823.857 160.785 824.305 161.028 824.638 161.362C825.013 161.736 825.442 162.43 825.747 163.7L831.581 162.3C831.105 160.315 830.265 158.502 828.881 157.119C827.457 155.694 825.659 154.929 823.675 154.74L823.106 160.713ZM981.984 163V166H985.79L984.902 162.3L981.984 163ZM921.438 163H918.438V166H921.438V163ZM921.438 157.727V154.727H918.438V157.727H921.438ZM938.039 157.727V160.727H941.039V157.727H938.039ZM938.039 113.391H941.039V112.599L940.648 111.91L938.039 113.391ZM902.688 51.0859L905.297 49.6055L904.435 48.0859H902.688V51.0859ZM893.508 51.0859H890.508V54.0859H893.508V51.0859ZM893.508 45.8125V42.8125H890.508V45.8125H893.508ZM948.195 45.8125H951.195V42.8125H948.195V45.8125ZM948.195 51.0859V54.0859H951.195V51.0859H948.195ZM933.352 51.0859V48.0859H928.379L930.698 52.4848L933.352 51.0859ZM961.867 105.188L959.213 106.586L961.972 111.82L964.564 106.502L961.867 105.188ZM988.234 51.0859L990.931 52.4002L993.034 48.0859H988.234V51.0859ZM972.609 51.0859H969.609V54.0859H972.609V51.0859ZM972.609 45.8125V42.8125H969.609V45.8125H972.609ZM1006.98 45.8125L1009.97 46.0969L1010.28 42.8125H1006.98V45.8125ZM1001.71 51.0859L1001.81 54.0844L1002.11 54.0745L1002.41 54.0031L1001.71 51.0859ZM991.945 56.5547L989.492 54.8282L989.348 55.0331L989.24 55.259L991.945 56.5547ZM965.383 112.023L962.677 110.728L962.383 111.342V112.023H965.383ZM965.383 157.727H962.383V160.727H965.383V157.727ZM976.711 157.727L976.995 154.74L976.853 154.727H976.711V157.727ZM981.984 160H921.438V166H981.984V160ZM924.438 163V157.727H918.438V163H924.438ZM921.438 160.727H938.039V154.727H921.438V160.727ZM941.039 157.727V113.391H935.039V157.727H941.039ZM940.648 111.91L905.297 49.6055L900.078 52.5664L935.43 114.871L940.648 111.91ZM902.688 48.0859H893.508V54.0859H902.688V48.0859ZM896.508 51.0859V45.8125H890.508V51.0859H896.508ZM893.508 48.8125H948.195V42.8125H893.508V48.8125ZM945.195 45.8125V51.0859H951.195V45.8125H945.195ZM948.195 48.0859H933.352V54.0859H948.195V48.0859ZM930.698 52.4848L959.213 106.586L964.521 103.789L936.005 49.6871L930.698 52.4848ZM964.564 106.502L990.931 52.4002L985.538 49.7716L959.17 103.873L964.564 106.502ZM988.234 48.0859H972.609V54.0859H988.234V48.0859ZM975.609 51.0859V45.8125H969.609V51.0859H975.609ZM972.609 48.8125H1006.98V42.8125H972.609V48.8125ZM1004 45.5281C1003.93 46.2787 1003.68 46.7271 1003.35 47.0603C1002.98 47.4346 1002.28 47.8639 1001.01 48.1688L1002.41 54.0031C1004.4 53.5267 1006.21 52.6865 1007.59 51.303C1009.02 49.8784 1009.78 48.0806 1009.97 46.0969L1004 45.5281ZM1001.61 48.0875C996.568 48.2503 992.467 50.5998 989.492 54.8282L994.399 58.2812C996.371 55.4783 998.781 54.182 1001.81 54.0844L1001.61 48.0875ZM989.24 55.259L962.677 110.728L968.089 113.319L994.651 57.8504L989.24 55.259ZM962.383 112.023V157.727H968.383V112.023H962.383ZM965.383 160.727H976.711V154.727H965.383V160.727ZM976.427 160.713C977.177 160.785 977.626 161.028 977.959 161.362C978.333 161.736 978.762 162.43 979.067 163.7L984.902 162.3C984.425 160.315 983.585 158.502 982.201 157.119C980.777 155.694 978.979 154.929 976.995 154.74L976.427 160.713Z" fill="white"/>
</g>
<defs>
<linearGradient id="paint0_linear_0_1" x1="13.625" y1="90.65" x2="82.4234" y2="94.35" gradientUnits="userSpaceOnUse">
<stop stop-color="white"/>
<stop offset="1" stop-color="white" stop-opacity="0"/>
</linearGradient>
<linearGradient id="paint1_linear_0_1" x1="204.292" y1="92.5" x2="135.494" y2="96.2" gradientUnits="userSpaceOnUse">
<stop stop-color="white"/>
<stop offset="1" stop-color="white" stop-opacity="0"/>
</linearGradient>
<clipPath id="clip0_0_1">
<rect width="1080" height="226" fill="white"/>
</clipPath>
</defs>
</svg>
