<svg width="1080" height="496" viewBox="0 0 1080 496" fill="none" xmlns="http://www.w3.org/2000/svg">
<g clip-path="url(#clip0_1_2)">
<path fill-rule="evenodd" clip-rule="evenodd" d="M190.977 211.596C190.977 217.035 157.835 222.156 104.924 222.156C52.0131 222.156 22.3298 217.389 22.3298 211.95C22.3298 206.511 52.0131 202.45 104.924 202.45C157.835 202.45 190.977 206.157 190.977 211.596Z" fill="#FF6600" fill-opacity="0.5"/>
<path fill-rule="evenodd" clip-rule="evenodd" d="M124.154 184.923L141.088 223.597C141.088 223.597 117.268 246.485 109.275 248.637C103.499 244.422 88.0061 211.419 92.4449 207.715C96.8837 204.011 110.978 185.376 124.154 184.923Z" fill="#7573AE" fill-opacity="0.15" stroke="black" stroke-width="1.33333"/>
<path fill-rule="evenodd" clip-rule="evenodd" d="M141.088 223.597C141.088 223.597 112.829 250.189 109.646 249.081C106.462 247.973 133.048 267.201 137.931 263.126C142.814 259.052 161.604 241.866 163.156 238.312C164.708 234.758 143.307 221.745 141.088 223.597Z" fill="#7573AE" fill-opacity="0.15" stroke="black" stroke-width="1.33333"/>
<path fill-rule="evenodd" clip-rule="evenodd" d="M124.407 185.561C125.372 188.521 138.565 215.16 140.717 223.153C143.16 223.373 157.835 228.587 163.317 236.06C163.691 241.019 156.033 212.632 154.324 204.268C146.996 203.607 136.178 187.033 124.407 185.561Z" fill="#7573AE" fill-opacity="0.15" stroke="black" stroke-width="1.33333"/>
<path fill-rule="evenodd" clip-rule="evenodd" d="M197.9 322.66C197.9 329.839 159.227 338.935 109.562 338.935C59.8961 338.935 19.588 326.568 19.588 319.39C19.588 312.211 58.588 312.925 108.253 312.925C157.919 312.925 197.9 315.481 197.9 322.66Z" fill="#7573AE" fill-opacity="0.14902" stroke="black" stroke-width="2.5" stroke-linejoin="round"/>
<path fill-rule="evenodd" clip-rule="evenodd" d="M26.0298 210.663L21.2499 295.848C32.7506 301.677 63.1851 305.007 108.06 305.936C137.976 304.678 175.733 302.606 196.647 293.998C198.784 292.321 191.212 210.97 191.212 210.97C183.733 216.001 153.268 219.953 103.051 220.372C54.357 220.726 26.0298 215.694 26.0298 210.663Z" fill="#FF6600" fill-opacity="0.619898"/>
<path fill-rule="evenodd" clip-rule="evenodd" d="M194.527 292.63C194.527 299.809 155.876 305.635 108.253 305.635C60.6303 305.635 21.9798 299.809 21.9798 292.63C21.9798 285.451 60.6303 279.625 108.253 279.625C155.876 279.625 194.527 285.451 194.527 292.63Z" fill="#7573AE" fill-opacity="0.14902" stroke="black" stroke-width="2.5" stroke-linejoin="round"/>
<path fill-rule="evenodd" clip-rule="evenodd" d="M26.6701 160.354L19.6448 321.919C20.5277 326.843 79.4302 339.47 116.51 338.239C141.23 336.392 181.255 335.773 198.029 324.694C199.795 322.232 190.031 161.324 190.031 161.324C183.851 168.71 150.058 174.511 108.564 175.127C68.836 175.127 26.6701 167.741 26.6701 160.354Z" fill="#7573AE" fill-opacity="0.15" stroke="black" stroke-width="2.5" stroke-linejoin="round"/>
<path fill-rule="evenodd" clip-rule="evenodd" d="M28.7719 159.993C27.5226 175.175 74.4452 179.268 81.5314 176.783C84.4221 176.205 79.4262 326.076 78.6873 330.874C70.7015 331.094 28.2029 323.728 21.7188 318.006L28.7719 159.993Z" fill="url(#paint0_linear_1_2)"/>
<path fill-rule="evenodd" clip-rule="evenodd" d="M189.145 161.843C190.395 177.025 143.472 181.118 136.386 178.633C133.495 178.055 138.491 327.926 139.23 332.724C147.216 332.944 189.714 325.578 196.198 319.856L189.145 161.843Z" fill="url(#paint1_linear_1_2)"/>
<path fill-rule="evenodd" clip-rule="evenodd" d="M189.234 161.897C189.234 169.881 152.88 176.361 108.087 176.361C63.2947 176.361 26.941 169.881 26.941 161.897C26.941 153.912 63.2947 147.432 108.087 147.432C152.88 147.432 189.234 153.912 189.234 161.897Z" fill="#7573AE" fill-opacity="0.15" stroke="black" stroke-width="2.5" stroke-linejoin="round"/>
<path d="M425.344 308H421.438C419.224 308 417.401 307.609 415.969 306.828C413.625 305.526 410.891 300.904 407.766 292.961L386.672 238.078L360.891 308H356.984C354.771 308 352.948 307.609 351.516 306.828C349.172 305.526 346.438 300.904 343.312 292.961L305.812 196.086H296.047V190.812H348.977V196.086H333.352L364.016 281.438L383.156 229.289L368.312 190.812H413.625V196.086L398 195.891L428.273 279.68L455.812 196.086H440.188V190.812H472.414V196.086H462.648L425.344 308ZM534.914 308H476.32V302.727H491.945V196.086H476.32V190.812H534.914V196.086H519.289V244.719H568.898V196.086H553.273V190.812H611.867V196.086H596.242V302.727H606.594C609.328 302.987 611.086 304.745 611.867 308H553.273V302.727H568.898V250.578H519.289V302.727H529.641C532.375 302.987 534.133 304.745 534.914 308ZM678.273 308H619.68V302.727H635.305V196.086H619.68V190.812H678.273V196.086H662.648V302.727H673C675.734 302.987 677.492 304.745 678.273 308ZM783.156 275.383C783.156 283.977 780.096 291.268 773.977 297.258C765.122 305.721 752.427 309.953 735.891 309.953C721.698 309.953 709.589 306.633 699.562 299.992C699.562 302.206 699.432 303.964 699.172 305.266C698.521 307.349 696.438 308.391 692.922 308.391V266.984H700.539C701.06 273.885 702.492 280.005 704.836 285.344C710.435 297.974 720.135 304.289 733.938 304.289C737.583 304.289 740.904 303.768 743.898 302.727C752.232 299.602 756.398 293.352 756.398 283.977C756.398 281.242 755.812 278.573 754.641 275.969C751.906 270.5 744.94 264.836 733.742 258.977C721.242 252.596 714.211 248.885 712.648 247.844C700.279 240.161 694.094 230.917 694.094 220.109C694.094 212.818 696.633 206.503 701.711 201.164C709.654 192.961 721.503 188.859 737.258 188.859C749.237 188.859 760.63 191.398 771.438 196.477C771.438 195.305 771.503 194.263 771.633 193.352C772.284 190.878 774.432 189.641 778.078 189.641V224.992H770.461C770.331 217.961 768.638 211.906 765.383 206.828C760.044 198.755 752.036 194.719 741.359 194.719C738.625 194.719 736.021 195.109 733.547 195.891C726.125 198.365 722.414 203.443 722.414 211.125C722.414 214.12 723.065 216.984 724.367 219.719C727.102 225.318 733.938 230.982 744.875 236.711C756.854 243.091 763.69 246.737 765.383 247.648C777.232 255.331 783.156 264.576 783.156 275.383ZM853.664 308H795.07V302.727H810.695V196.086H795.07V190.812H853.664V196.086H838.039V246.477L893.898 196.086H878.273V190.812H914.406C914.406 191.464 914.341 192.115 914.211 192.766C913.951 194.979 912.258 196.086 909.133 196.086C908.352 196.086 907.505 196.151 906.594 196.281C903.99 196.932 899.758 199.927 893.898 205.266L864.211 232.023L911.867 302.727H913.625C916.359 302.987 918.117 304.745 918.898 308L881.594 308.195L844.289 250.188L838.039 255.852V302.727H848.391C851.125 302.987 852.883 304.745 853.664 308ZM1006.98 308H946.438V302.727H963.039V258.391L927.688 196.086H918.508V190.812H973.195V196.086H958.352L986.867 250.188L1013.23 196.086H997.609V190.812H1031.98C1031.72 193.547 1029.97 195.305 1026.71 196.086C1022.67 196.216 1019.42 198.039 1016.95 201.555L990.383 257.023V302.727H1001.71C1004.45 302.987 1006.2 304.745 1006.98 308Z" fill="black"/>
<path d="M425.344 308V311H427.506L428.19 308.949L425.344 308ZM415.969 306.828L414.512 309.451L414.522 309.456L414.532 309.462L415.969 306.828ZM407.766 292.961L404.965 294.037L404.97 294.048L404.974 294.059L407.766 292.961ZM386.672 238.078L389.472 237.002L386.614 229.564L383.857 237.04L386.672 238.078ZM360.891 308V311H362.982L363.705 309.038L360.891 308ZM351.516 306.828L350.059 309.451L350.069 309.456L350.079 309.462L351.516 306.828ZM343.312 292.961L340.515 294.044L340.518 294.052L340.521 294.059L343.312 292.961ZM305.812 196.086L308.61 195.003L307.868 193.086H305.812V196.086ZM296.047 196.086H293.047V199.086H296.047V196.086ZM296.047 190.812V187.812H293.047V190.812H296.047ZM348.977 190.812H351.977V187.812H348.977V190.812ZM348.977 196.086V199.086H351.977V196.086H348.977ZM333.352 196.086V193.086H329.086L330.528 197.1L333.352 196.086ZM364.016 281.438L361.192 282.452L363.985 290.226L366.832 282.471L364.016 281.438ZM383.156 229.289L385.973 230.323L386.362 229.263L385.955 228.209L383.156 229.289ZM368.312 190.812V187.812H363.94L365.514 191.892L368.312 190.812ZM413.625 190.812H416.625V187.812H413.625V190.812ZM413.625 196.086L413.588 199.086L416.625 199.124V196.086H413.625ZM398 195.891L398.037 192.891L393.707 192.837L395.179 196.91L398 195.891ZM428.273 279.68L425.452 280.699L428.404 288.87L431.123 280.618L428.273 279.68ZM455.812 196.086L458.662 197.025L459.959 193.086H455.812V196.086ZM440.188 196.086H437.188V199.086H440.188V196.086ZM440.188 190.812V187.812H437.188V190.812H440.188ZM472.414 190.812H475.414V187.812H472.414V190.812ZM472.414 196.086V199.086H475.414V196.086H472.414ZM462.648 196.086V193.086H460.486L459.802 195.137L462.648 196.086ZM425.344 305H421.438V311H425.344V305ZM421.438 305C419.555 305 418.268 304.665 417.405 304.194L414.532 309.462C416.534 310.554 418.893 311 421.438 311V305ZM417.426 304.206C416.992 303.965 416.06 303.085 414.742 300.857C413.489 298.739 412.091 295.761 410.557 291.863L404.974 294.059C406.565 298.103 408.097 301.408 409.578 303.912C410.994 306.306 412.602 308.39 414.512 309.451L417.426 304.206ZM410.566 291.885L389.472 237.002L383.872 239.154L404.965 294.037L410.566 291.885ZM383.857 237.04L358.076 306.962L363.705 309.038L389.487 239.116L383.857 237.04ZM360.891 305H356.984V311H360.891V305ZM356.984 305C355.102 305 353.815 304.665 352.952 304.194L350.079 309.462C352.081 310.554 354.44 311 356.984 311V305ZM352.973 304.206C352.539 303.965 351.607 303.085 350.289 300.857C349.036 298.739 347.638 295.761 346.104 291.863L340.521 294.059C342.112 298.103 343.644 301.408 345.125 303.912C346.541 306.306 348.149 308.39 350.059 309.451L352.973 304.206ZM346.11 291.878L308.61 195.003L303.015 197.169L340.515 294.044L346.11 291.878ZM305.812 193.086H296.047V199.086H305.812V193.086ZM299.047 196.086V190.812H293.047V196.086H299.047ZM296.047 193.812H348.977V187.812H296.047V193.812ZM345.977 190.812V196.086H351.977V190.812H345.977ZM348.977 193.086H333.352V199.086H348.977V193.086ZM330.528 197.1L361.192 282.452L366.839 280.423L336.175 195.072L330.528 197.1ZM366.832 282.471L385.973 230.323L380.34 228.255L361.199 280.404L366.832 282.471ZM385.955 228.209L371.111 189.733L365.514 191.892L380.357 230.369L385.955 228.209ZM368.312 193.812H413.625V187.812H368.312V193.812ZM410.625 190.812V196.086H416.625V190.812H410.625ZM413.662 193.086L398.037 192.891L397.963 198.89L413.588 199.086L413.662 193.086ZM395.179 196.91L425.452 280.699L431.095 278.66L400.821 194.871L395.179 196.91ZM431.123 280.618L458.662 197.025L452.963 195.147L425.424 278.741L431.123 280.618ZM455.812 193.086H440.188V199.086H455.812V193.086ZM443.188 196.086V190.812H437.188V196.086H443.188ZM440.188 193.812H472.414V187.812H440.188V193.812ZM469.414 190.812V196.086H475.414V190.812H469.414ZM472.414 193.086H462.648V199.086H472.414V193.086ZM459.802 195.137L422.498 307.051L428.19 308.949L465.494 197.035L459.802 195.137ZM534.914 308V311H538.719L537.831 307.3L534.914 308ZM476.32 308H473.32V311H476.32V308ZM476.32 302.727V299.727H473.32V302.727H476.32ZM491.945 302.727V305.727H494.945V302.727H491.945ZM491.945 196.086H494.945V193.086H491.945V196.086ZM476.32 196.086H473.32V199.086H476.32V196.086ZM476.32 190.812V187.812H473.32V190.812H476.32ZM534.914 190.812H537.914V187.812H534.914V190.812ZM534.914 196.086V199.086H537.914V196.086H534.914ZM519.289 196.086V193.086H516.289V196.086H519.289ZM519.289 244.719H516.289V247.719H519.289V244.719ZM568.898 244.719V247.719H571.898V244.719H568.898ZM568.898 196.086H571.898V193.086H568.898V196.086ZM553.273 196.086H550.273V199.086H553.273V196.086ZM553.273 190.812V187.812H550.273V190.812H553.273ZM611.867 190.812H614.867V187.812H611.867V190.812ZM611.867 196.086V199.086H614.867V196.086H611.867ZM596.242 196.086V193.086H593.242V196.086H596.242ZM596.242 302.727H593.242V305.727H596.242V302.727ZM606.594 302.727L606.878 299.74L606.736 299.727H606.594V302.727ZM611.867 308V311H615.672L614.784 307.3L611.867 308ZM553.273 308H550.273V311H553.273V308ZM553.273 302.727V299.727H550.273V302.727H553.273ZM568.898 302.727V305.727H571.898V302.727H568.898ZM568.898 250.578H571.898V247.578H568.898V250.578ZM519.289 250.578V247.578H516.289V250.578H519.289ZM519.289 302.727H516.289V305.727H519.289V302.727ZM529.641 302.727L529.925 299.74L529.783 299.727H529.641V302.727ZM534.914 305H476.32V311H534.914V305ZM479.32 308V302.727H473.32V308H479.32ZM476.32 305.727H491.945V299.727H476.32V305.727ZM494.945 302.727V196.086H488.945V302.727H494.945ZM491.945 193.086H476.32V199.086H491.945V193.086ZM479.32 196.086V190.812H473.32V196.086H479.32ZM476.32 193.812H534.914V187.812H476.32V193.812ZM531.914 190.812V196.086H537.914V190.812H531.914ZM534.914 193.086H519.289V199.086H534.914V193.086ZM516.289 196.086V244.719H522.289V196.086H516.289ZM519.289 247.719H568.898V241.719H519.289V247.719ZM571.898 244.719V196.086H565.898V244.719H571.898ZM568.898 193.086H553.273V199.086H568.898V193.086ZM556.273 196.086V190.812H550.273V196.086H556.273ZM553.273 193.812H611.867V187.812H553.273V193.812ZM608.867 190.812V196.086H614.867V190.812H608.867ZM611.867 193.086H596.242V199.086H611.867V193.086ZM593.242 196.086V302.727H599.242V196.086H593.242ZM596.242 305.727H606.594V299.727H596.242V305.727ZM606.309 305.713C607.06 305.785 607.508 306.028 607.842 306.362C608.216 306.736 608.645 307.43 608.95 308.7L614.784 307.3C614.308 305.315 613.468 303.502 612.084 302.119C610.66 300.694 608.862 299.929 606.878 299.74L606.309 305.713ZM611.867 305H553.273V311H611.867V305ZM556.273 308V302.727H550.273V308H556.273ZM553.273 305.727H568.898V299.727H553.273V305.727ZM571.898 302.727V250.578H565.898V302.727H571.898ZM568.898 247.578H519.289V253.578H568.898V247.578ZM516.289 250.578V302.727H522.289V250.578H516.289ZM519.289 305.727H529.641V299.727H519.289V305.727ZM529.356 305.713C530.107 305.785 530.555 306.028 530.888 306.362C531.263 306.736 531.692 307.43 531.997 308.7L537.831 307.3C537.355 305.315 536.515 303.502 535.131 302.119C533.707 300.694 531.909 299.929 529.925 299.74L529.356 305.713ZM678.273 308V311H682.079L681.191 307.3L678.273 308ZM619.68 308H616.68V311H619.68V308ZM619.68 302.727V299.727H616.68V302.727H619.68ZM635.305 302.727V305.727H638.305V302.727H635.305ZM635.305 196.086H638.305V193.086H635.305V196.086ZM619.68 196.086H616.68V199.086H619.68V196.086ZM619.68 190.812V187.812H616.68V190.812H619.68ZM678.273 190.812H681.273V187.812H678.273V190.812ZM678.273 196.086V199.086H681.273V196.086H678.273ZM662.648 196.086V193.086H659.648V196.086H662.648ZM662.648 302.727H659.648V305.727H662.648V302.727ZM673 302.727L673.284 299.74L673.143 299.727H673V302.727ZM678.273 305H619.68V311H678.273V305ZM622.68 308V302.727H616.68V308H622.68ZM619.68 305.727H635.305V299.727H619.68V305.727ZM638.305 302.727V196.086H632.305V302.727H638.305ZM635.305 193.086H619.68V199.086H635.305V193.086ZM622.68 196.086V190.812H616.68V196.086H622.68ZM619.68 193.812H678.273V187.812H619.68V193.812ZM675.273 190.812V196.086H681.273V190.812H675.273ZM678.273 193.086H662.648V199.086H678.273V193.086ZM659.648 196.086V302.727H665.648V196.086H659.648ZM662.648 305.727H673V299.727H662.648V305.727ZM672.716 305.713C673.466 305.785 673.915 306.028 674.248 306.362C674.622 306.736 675.051 307.43 675.356 308.7L681.191 307.3C680.714 305.315 679.874 303.502 678.49 302.119C677.066 300.694 675.268 299.929 673.284 299.74L672.716 305.713ZM773.977 297.258L776.05 299.426L776.062 299.414L776.075 299.402L773.977 297.258ZM699.562 299.992L701.219 297.491L696.562 294.407V299.992H699.562ZM699.172 305.266L702.035 306.16L702.083 306.009L702.114 305.854L699.172 305.266ZM692.922 308.391H689.922V311.391H692.922V308.391ZM692.922 266.984V263.984H689.922V266.984H692.922ZM700.539 266.984L703.531 266.759L703.321 263.984H700.539V266.984ZM704.836 285.344L702.089 286.55L702.093 286.56L704.836 285.344ZM743.898 302.727L744.884 305.56L744.918 305.548L744.952 305.536L743.898 302.727ZM754.641 275.969L757.376 274.738L757.351 274.682L757.324 274.627L754.641 275.969ZM733.742 258.977L735.133 256.318L735.12 256.311L735.106 256.305L733.742 258.977ZM712.648 247.844L714.313 245.348L714.272 245.321L714.231 245.295L712.648 247.844ZM701.711 201.164L699.556 199.077L699.546 199.087L699.537 199.096L701.711 201.164ZM771.438 196.477L770.162 199.192L774.438 201.201V196.477H771.438ZM771.633 193.352L768.732 192.588L768.687 192.756L768.663 192.927L771.633 193.352ZM778.078 189.641H781.078V186.641H778.078V189.641ZM778.078 224.992V227.992H781.078V224.992H778.078ZM770.461 224.992L767.461 225.048L767.516 227.992H770.461V224.992ZM765.383 206.828L767.908 205.209L767.897 205.191L767.885 205.173L765.383 206.828ZM733.547 195.891L732.643 193.03L732.621 193.037L732.598 193.045L733.547 195.891ZM724.367 219.719L721.659 221.009L721.665 221.022L721.671 221.035L724.367 219.719ZM744.875 236.711L746.285 234.063L746.276 234.058L746.267 234.053L744.875 236.711ZM765.383 247.648L767.015 245.131L766.913 245.065L766.805 245.007L765.383 247.648ZM780.156 275.383C780.156 283.173 777.419 289.691 771.878 295.114L776.075 299.402C782.774 292.846 786.156 284.78 786.156 275.383H780.156ZM771.904 295.089C763.78 302.855 751.931 306.953 735.891 306.953V312.953C752.923 312.953 766.465 308.588 776.05 299.426L771.904 295.089ZM735.891 306.953C722.179 306.953 710.671 303.751 701.219 297.491L697.906 302.493C708.506 309.514 721.217 312.953 735.891 312.953V306.953ZM696.562 299.992C696.562 302.12 696.435 303.654 696.23 304.677L702.114 305.854C702.43 304.273 702.562 302.291 702.562 299.992H696.562ZM696.308 304.371C696.244 304.578 696.146 304.743 695.779 304.926C695.312 305.16 694.431 305.391 692.922 305.391V311.391C694.929 311.391 696.846 311.101 698.463 310.293C700.179 309.435 701.449 308.037 702.035 306.16L696.308 304.371ZM695.922 308.391V266.984H689.922V308.391H695.922ZM692.922 269.984H700.539V263.984H692.922V269.984ZM697.548 267.21C698.089 274.388 699.586 280.849 702.089 286.55L707.583 284.138C705.398 279.162 704.031 273.383 703.531 266.759L697.548 267.21ZM702.093 286.56C705.082 293.301 709.25 298.536 714.674 302.067C720.098 305.598 726.569 307.289 733.938 307.289V301.289C727.504 301.289 722.223 299.822 717.947 297.039C713.671 294.255 710.189 290.017 707.579 284.128L702.093 286.56ZM733.938 307.289C737.869 307.289 741.529 306.727 744.884 305.56L742.913 299.893C740.279 300.809 737.297 301.289 733.938 301.289V307.289ZM744.952 305.536C749.596 303.794 753.276 301.099 755.77 297.359C758.255 293.632 759.398 289.109 759.398 283.977H753.398C753.398 288.219 752.459 291.509 750.777 294.031C749.104 296.541 746.535 298.534 742.845 299.918L744.952 305.536ZM759.398 283.977C759.398 280.799 758.715 277.711 757.376 274.738L751.905 277.2C752.91 279.435 753.398 281.685 753.398 283.977H759.398ZM757.324 274.627C754.134 268.247 746.401 262.215 735.133 256.318L732.351 261.635C743.479 267.457 749.678 272.753 751.957 277.31L757.324 274.627ZM735.106 256.305C722.491 249.865 715.687 246.264 714.313 245.348L710.984 250.34C712.735 251.507 719.994 255.327 732.378 261.649L735.106 256.305ZM714.231 245.295C702.4 237.948 697.094 229.532 697.094 220.109H691.094C691.094 232.302 698.157 242.375 711.066 250.392L714.231 245.295ZM697.094 220.109C697.094 213.596 699.331 208.019 703.885 203.232L699.537 199.096C693.935 204.986 691.094 212.039 691.094 220.109H697.094ZM703.866 203.251C711.056 195.825 721.999 191.859 737.258 191.859V185.859C721.007 185.859 708.251 190.097 699.556 199.077L703.866 203.251ZM737.258 191.859C748.797 191.859 759.755 194.302 770.162 199.192L772.713 193.761C761.506 188.495 749.677 185.859 737.258 185.859V191.859ZM774.438 196.477C774.438 195.41 774.497 194.515 774.603 193.776L768.663 192.927C768.508 194.011 768.438 195.199 768.438 196.477H774.438ZM774.534 194.115C774.663 193.626 774.874 193.373 775.229 193.168C775.683 192.907 776.55 192.641 778.078 192.641V186.641C775.96 186.641 773.93 186.993 772.236 187.968C770.442 189.001 769.254 190.604 768.732 192.588L774.534 194.115ZM775.078 189.641V224.992H781.078V189.641H775.078ZM778.078 221.992H770.461V227.992H778.078V221.992ZM773.46 224.937C773.322 217.444 771.51 210.827 767.908 205.209L762.857 208.447C765.766 212.985 767.34 218.478 767.461 225.048L773.46 224.937ZM767.885 205.173C761.927 196.163 752.921 191.719 741.359 191.719V197.719C751.152 197.719 758.162 201.347 762.88 208.483L767.885 205.173ZM741.359 191.719C738.335 191.719 735.425 192.151 732.643 193.03L734.45 198.751C736.617 198.067 738.915 197.719 741.359 197.719V191.719ZM732.598 193.045C728.442 194.43 725.079 196.631 722.775 199.785C720.467 202.942 719.414 206.791 719.414 211.125H725.414C725.414 207.777 726.216 205.245 727.619 203.325C729.026 201.4 731.23 199.825 734.496 198.737L732.598 193.045ZM719.414 211.125C719.414 214.571 720.167 217.876 721.659 221.009L727.076 218.429C725.963 216.093 725.414 213.668 725.414 211.125H719.414ZM721.671 221.035C724.852 227.548 732.445 233.587 743.483 239.368L746.267 234.053C735.43 228.377 729.351 223.087 727.063 218.402L721.671 221.035ZM743.465 239.359C755.448 245.741 762.276 249.383 763.961 250.29L766.805 245.007C765.105 244.091 758.26 240.441 746.285 234.063L743.465 239.359ZM763.751 250.166C775.04 257.485 780.156 265.898 780.156 275.383H786.156C786.156 263.253 779.423 253.176 767.015 245.131L763.751 250.166ZM853.664 308V311H857.469L856.581 307.3L853.664 308ZM795.07 308H792.07V311H795.07V308ZM795.07 302.727V299.727H792.07V302.727H795.07ZM810.695 302.727V305.727H813.695V302.727H810.695ZM810.695 196.086H813.695V193.086H810.695V196.086ZM795.07 196.086H792.07V199.086H795.07V196.086ZM795.07 190.812V187.812H792.07V190.812H795.07ZM853.664 190.812H856.664V187.812H853.664V190.812ZM853.664 196.086V199.086H856.664V196.086H853.664ZM838.039 196.086V193.086H835.039V196.086H838.039ZM838.039 246.477H835.039V253.223L840.049 248.704L838.039 246.477ZM893.898 196.086L895.908 198.313L901.703 193.086H893.898V196.086ZM878.273 196.086H875.273V199.086H878.273V196.086ZM878.273 190.812V187.812H875.273V190.812H878.273ZM914.406 190.812H917.406V187.812H914.406V190.812ZM914.211 192.766L911.269 192.177L911.246 192.295L911.231 192.415L914.211 192.766ZM906.594 196.281L906.169 193.311L906.016 193.333L905.866 193.371L906.594 196.281ZM893.898 205.266L895.907 207.494L895.913 207.489L895.919 207.483L893.898 205.266ZM864.211 232.023L862.202 229.795L860.267 231.54L861.723 233.7L864.211 232.023ZM911.867 302.727L909.38 304.403L910.271 305.727H911.867V302.727ZM913.625 302.727L913.909 299.74L913.768 299.727H913.625V302.727ZM918.898 308L918.914 311L922.699 310.98L921.816 307.3L918.898 308ZM881.594 308.195L879.07 309.818L879.962 311.204L881.609 311.195L881.594 308.195ZM844.289 250.188L846.812 248.565L844.898 245.587L842.275 247.965L844.289 250.188ZM838.039 255.852L836.025 253.629L835.039 254.522V255.852H838.039ZM838.039 302.727H835.039V305.727H838.039V302.727ZM848.391 302.727L848.675 299.74L848.533 299.727H848.391V302.727ZM853.664 305H795.07V311H853.664V305ZM798.07 308V302.727H792.07V308H798.07ZM795.07 305.727H810.695V299.727H795.07V305.727ZM813.695 302.727V196.086H807.695V302.727H813.695ZM810.695 193.086H795.07V199.086H810.695V193.086ZM798.07 196.086V190.812H792.07V196.086H798.07ZM795.07 193.812H853.664V187.812H795.07V193.812ZM850.664 190.812V196.086H856.664V190.812H850.664ZM853.664 193.086H838.039V199.086H853.664V193.086ZM835.039 196.086V246.477H841.039V196.086H835.039ZM840.049 248.704L895.908 198.313L891.889 193.858L836.03 244.249L840.049 248.704ZM893.898 193.086H878.273V199.086H893.898V193.086ZM881.273 196.086V190.812H875.273V196.086H881.273ZM878.273 193.812H914.406V187.812H878.273V193.812ZM911.406 190.812C911.406 191.262 911.361 191.716 911.269 192.177L917.153 193.354C917.321 192.513 917.406 191.665 917.406 190.812H911.406ZM911.231 192.415C911.207 192.62 911.164 192.693 911.161 192.697C911.159 192.702 911.157 192.703 911.155 192.706C911.152 192.709 911.138 192.723 911.104 192.745C910.945 192.849 910.406 193.086 909.133 193.086V199.086C910.984 199.086 912.855 198.769 914.388 197.767C916.06 196.673 916.968 195.004 917.19 193.116L911.231 192.415ZM909.133 193.086C908.187 193.086 907.197 193.165 906.169 193.311L907.018 199.251C907.813 199.138 908.516 199.086 909.133 199.086V193.086ZM905.866 193.371C904.006 193.836 901.924 195.017 899.734 196.567C897.48 198.162 894.856 200.334 891.878 203.048L895.919 207.483C898.8 204.858 901.222 202.864 903.2 201.464C905.241 200.02 906.578 199.378 907.321 199.192L905.866 193.371ZM891.89 203.037L862.202 229.795L866.219 234.252L895.907 207.494L891.89 203.037ZM861.723 233.7L909.38 304.403L914.355 301.05L866.699 230.347L861.723 233.7ZM911.867 305.727H913.625V299.727H911.867V305.727ZM913.341 305.713C914.091 305.785 914.54 306.028 914.873 306.362C915.247 306.736 915.676 307.43 915.981 308.7L921.816 307.3C921.339 305.315 920.499 303.502 919.115 302.119C917.691 300.694 915.893 299.929 913.909 299.74L913.341 305.713ZM918.883 305L881.578 305.195L881.609 311.195L918.914 311L918.883 305ZM884.117 306.573L846.812 248.565L841.766 251.81L879.07 309.818L884.117 306.573ZM842.275 247.965L836.025 253.629L840.054 258.075L846.304 252.41L842.275 247.965ZM835.039 255.852V302.727H841.039V255.852H835.039ZM838.039 305.727H848.391V299.727H838.039V305.727ZM848.106 305.713C848.857 305.785 849.305 306.028 849.638 306.362C850.013 306.736 850.442 307.43 850.747 308.7L856.581 307.3C856.105 305.315 855.265 303.502 853.881 302.119C852.457 300.694 850.659 299.929 848.675 299.74L848.106 305.713ZM1006.98 308V311H1010.79L1009.9 307.3L1006.98 308ZM946.438 308H943.438V311H946.438V308ZM946.438 302.727V299.727H943.438V302.727H946.438ZM963.039 302.727V305.727H966.039V302.727H963.039ZM963.039 258.391H966.039V257.599L965.648 256.91L963.039 258.391ZM927.688 196.086L930.297 194.605L929.435 193.086H927.688V196.086ZM918.508 196.086H915.508V199.086H918.508V196.086ZM918.508 190.812V187.812H915.508V190.812H918.508ZM973.195 190.812H976.195V187.812H973.195V190.812ZM973.195 196.086V199.086H976.195V196.086H973.195ZM958.352 196.086V193.086H953.379L955.698 197.485L958.352 196.086ZM986.867 250.188L984.213 251.586L986.972 256.82L989.564 251.502L986.867 250.188ZM1013.23 196.086L1015.93 197.4L1018.03 193.086H1013.23V196.086ZM997.609 196.086H994.609V199.086H997.609V196.086ZM997.609 190.812V187.812H994.609V190.812H997.609ZM1031.98 190.812L1034.97 191.097L1035.28 187.812H1031.98V190.812ZM1026.71 196.086L1026.81 199.084L1027.11 199.075L1027.41 199.003L1026.71 196.086ZM1016.95 201.555L1014.49 199.828L1014.35 200.033L1014.24 200.259L1016.95 201.555ZM990.383 257.023L987.677 255.728L987.383 256.342V257.023H990.383ZM990.383 302.727H987.383V305.727H990.383V302.727ZM1001.71 302.727L1002 299.74L1001.85 299.727H1001.71V302.727ZM1006.98 305H946.438V311H1006.98V305ZM949.438 308V302.727H943.438V308H949.438ZM946.438 305.727H963.039V299.727H946.438V305.727ZM966.039 302.727V258.391H960.039V302.727H966.039ZM965.648 256.91L930.297 194.605L925.078 197.566L960.43 259.871L965.648 256.91ZM927.688 193.086H918.508V199.086H927.688V193.086ZM921.508 196.086V190.812H915.508V196.086H921.508ZM918.508 193.812H973.195V187.812H918.508V193.812ZM970.195 190.812V196.086H976.195V190.812H970.195ZM973.195 193.086H958.352V199.086H973.195V193.086ZM955.698 197.485L984.213 251.586L989.521 248.789L961.005 194.687L955.698 197.485ZM989.564 251.502L1015.93 197.4L1010.54 194.772L984.17 248.873L989.564 251.502ZM1013.23 193.086H997.609V199.086H1013.23V193.086ZM1000.61 196.086V190.812H994.609V196.086H1000.61ZM997.609 193.812H1031.98V187.812H997.609V193.812ZM1029 190.528C1028.93 191.279 1028.68 191.727 1028.35 192.06C1027.98 192.435 1027.28 192.864 1026.01 193.169L1027.41 199.003C1029.4 198.527 1031.21 197.686 1032.59 196.303C1034.02 194.878 1034.78 193.081 1034.97 191.097L1029 190.528ZM1026.61 193.087C1021.57 193.25 1017.47 195.6 1014.49 199.828L1019.4 203.281C1021.37 200.478 1023.78 199.182 1026.81 199.084L1026.61 193.087ZM1014.24 200.259L987.677 255.728L993.089 258.319L1019.65 202.85L1014.24 200.259ZM987.383 257.023V302.727H993.383V257.023H987.383ZM990.383 305.727H1001.71V299.727H990.383V305.727ZM1001.43 305.713C1002.18 305.785 1002.63 306.028 1002.96 306.362C1003.33 306.736 1003.76 307.43 1004.07 308.7L1009.9 307.3C1009.43 305.315 1008.58 303.502 1007.2 302.119C1005.78 300.694 1003.98 299.929 1002 299.74L1001.43 305.713Z" fill="white"/>
</g>
<defs>
<linearGradient id="paint0_linear_1_2" x1="13.625" y1="220.65" x2="82.4234" y2="224.35" gradientUnits="userSpaceOnUse">
<stop stop-color="white"/>
<stop offset="1" stop-color="white" stop-opacity="0"/>
</linearGradient>
<linearGradient id="paint1_linear_1_2" x1="204.292" y1="222.5" x2="135.494" y2="226.2" gradientUnits="userSpaceOnUse">
<stop stop-color="white"/>
<stop offset="1" stop-color="white" stop-opacity="0"/>
</linearGradient>
<clipPath id="clip0_1_2">
<rect width="1080" height="496" fill="white"/>
</clipPath>
</defs>
</svg>
