<svg width="1080" height="496" viewBox="0 0 1080 496" fill="none" xmlns="http://www.w3.org/2000/svg">
<g clip-path="url(#clip0_1_2)">
<path fill-rule="evenodd" clip-rule="evenodd" d="M190.977 211.596C190.977 217.035 157.835 222.156 104.924 222.156C52.0131 222.156 22.3298 217.389 22.3298 211.95C22.3298 206.511 52.0131 202.45 104.924 202.45C157.835 202.45 190.977 206.157 190.977 211.596Z" fill="#FF6600" fill-opacity="0.5"/>
<path fill-rule="evenodd" clip-rule="evenodd" d="M124.154 184.923L141.088 223.597C141.088 223.597 117.268 246.485 109.275 248.637C103.499 244.422 88.0061 211.419 92.4449 207.715C96.8837 204.011 110.978 185.376 124.154 184.923Z" fill="#7573AE" fill-opacity="0.15" stroke="black" stroke-width="1.33333"/>
<path fill-rule="evenodd" clip-rule="evenodd" d="M141.088 223.597C141.088 223.597 112.829 250.189 109.646 249.081C106.462 247.973 133.048 267.201 137.931 263.126C142.814 259.052 161.604 241.866 163.156 238.312C164.708 234.758 143.307 221.745 141.088 223.597Z" fill="#7573AE" fill-opacity="0.15" stroke="black" stroke-width="1.33333"/>
<path fill-rule="evenodd" clip-rule="evenodd" d="M124.407 185.561C125.372 188.521 138.565 215.16 140.717 223.153C143.16 223.373 157.835 228.587 163.317 236.06C163.691 241.019 156.033 212.632 154.324 204.268C146.996 203.607 136.178 187.033 124.407 185.561Z" fill="#7573AE" fill-opacity="0.15" stroke="black" stroke-width="1.33333"/>
<path fill-rule="evenodd" clip-rule="evenodd" d="M197.9 322.66C197.9 329.839 159.227 338.935 109.562 338.935C59.8961 338.935 19.588 326.568 19.588 319.39C19.588 312.211 58.588 312.925 108.253 312.925C157.919 312.925 197.9 315.481 197.9 322.66Z" fill="#7573AE" fill-opacity="0.14902" stroke="black" stroke-width="2.5" stroke-linejoin="round"/>
<path fill-rule="evenodd" clip-rule="evenodd" d="M26.0298 210.663L21.2499 295.848C32.7506 301.677 63.1851 305.007 108.06 305.936C137.976 304.678 175.733 302.606 196.647 293.998C198.784 292.321 191.212 210.97 191.212 210.97C183.733 216.001 153.268 219.953 103.051 220.372C54.357 220.726 26.0298 215.694 26.0298 210.663Z" fill="#FF6600" fill-opacity="0.619898"/>
<path fill-rule="evenodd" clip-rule="evenodd" d="M194.527 292.63C194.527 299.809 155.876 305.635 108.253 305.635C60.6303 305.635 21.9798 299.809 21.9798 292.63C21.9798 285.451 60.6303 279.625 108.253 279.625C155.876 279.625 194.527 285.451 194.527 292.63Z" fill="#7573AE" fill-opacity="0.14902" stroke="black" stroke-width="2.5" stroke-linejoin="round"/>
<path fill-rule="evenodd" clip-rule="evenodd" d="M26.6701 160.354L19.6448 321.919C20.5277 326.843 79.4302 339.47 116.51 338.239C141.23 336.392 181.255 335.773 198.029 324.694C199.795 322.232 190.031 161.324 190.031 161.324C183.851 168.71 150.058 174.511 108.564 175.127C68.836 175.127 26.6701 167.741 26.6701 160.354Z" fill="#7573AE" fill-opacity="0.15" stroke="black" stroke-width="2.5" stroke-linejoin="round"/>
<path fill-rule="evenodd" clip-rule="evenodd" d="M28.7719 159.993C27.5226 175.175 74.4452 179.268 81.5314 176.783C84.4221 176.205 79.4262 326.076 78.6873 330.874C70.7015 331.094 28.2029 323.728 21.7188 318.006L28.7719 159.993Z" fill="url(#paint0_linear_1_2)"/>
<path fill-rule="evenodd" clip-rule="evenodd" d="M189.145 161.843C190.395 177.025 143.472 181.118 136.386 178.633C133.495 178.055 138.491 327.926 139.23 332.724C147.216 332.944 189.714 325.578 196.198 319.856L189.145 161.843Z" fill="url(#paint1_linear_1_2)"/>
<path fill-rule="evenodd" clip-rule="evenodd" d="M189.234 161.897C189.234 169.881 152.88 176.361 108.087 176.361C63.2947 176.361 26.941 169.881 26.941 161.897C26.941 153.912 63.2947 147.432 108.087 147.432C152.88 147.432 189.234 153.912 189.234 161.897Z" fill="#7573AE" fill-opacity="0.15" stroke="black" stroke-width="2.5" stroke-linejoin="round"/>
<path d="M425.344 308H421.438C419.224 308 417.401 307.609 415.969 306.828C413.625 305.526 410.891 300.904 407.766 292.961L386.672 238.078L360.891 308H356.984C354.771 308 352.948 307.609 351.516 306.828C349.172 305.526 346.438 300.904 343.312 292.961L305.812 196.086H296.047V190.812H348.977V196.086H333.352L364.016 281.438L383.156 229.289L368.312 190.812H413.625V196.086L398 195.891L428.273 279.68L455.812 196.086H440.188V190.812H472.414V196.086H462.648L425.344 308ZM534.914 308H476.32V302.727H491.945V196.086H476.32V190.812H534.914V196.086H519.289V244.719H568.898V196.086H553.273V190.812H611.867V196.086H596.242V302.727H606.594C609.328 302.987 611.086 304.745 611.867 308H553.273V302.727H568.898V250.578H519.289V302.727H529.641C532.375 302.987 534.133 304.745 534.914 308ZM678.273 308H619.68V302.727H635.305V196.086H619.68V190.812H678.273V196.086H662.648V302.727H673C675.734 302.987 677.492 304.745 678.273 308ZM783.156 275.383C783.156 283.977 780.096 291.268 773.977 297.258C765.122 305.721 752.427 309.953 735.891 309.953C721.698 309.953 709.589 306.633 699.562 299.992C699.562 302.206 699.432 303.964 699.172 305.266C698.521 307.349 696.438 308.391 692.922 308.391V266.984H700.539C701.06 273.885 702.492 280.005 704.836 285.344C710.435 297.974 720.135 304.289 733.938 304.289C737.583 304.289 740.904 303.768 743.898 302.727C752.232 299.602 756.398 293.352 756.398 283.977C756.398 281.242 755.812 278.573 754.641 275.969C751.906 270.5 744.94 264.836 733.742 258.977C721.242 252.596 714.211 248.885 712.648 247.844C700.279 240.161 694.094 230.917 694.094 220.109C694.094 212.818 696.633 206.503 701.711 201.164C709.654 192.961 721.503 188.859 737.258 188.859C749.237 188.859 760.63 191.398 771.438 196.477C771.438 195.305 771.503 194.263 771.633 193.352C772.284 190.878 774.432 189.641 778.078 189.641V224.992H770.461C770.331 217.961 768.638 211.906 765.383 206.828C760.044 198.755 752.036 194.719 741.359 194.719C738.625 194.719 736.021 195.109 733.547 195.891C726.125 198.365 722.414 203.443 722.414 211.125C722.414 214.12 723.065 216.984 724.367 219.719C727.102 225.318 733.938 230.982 744.875 236.711C756.854 243.091 763.69 246.737 765.383 247.648C777.232 255.331 783.156 264.576 783.156 275.383ZM853.664 308H795.07V302.727H810.695V196.086H795.07V190.812H853.664V196.086H838.039V246.477L893.898 196.086H878.273V190.812H914.406C914.406 191.464 914.341 192.115 914.211 192.766C913.951 194.979 912.258 196.086 909.133 196.086C908.352 196.086 907.505 196.151 906.594 196.281C903.99 196.932 899.758 199.927 893.898 205.266L864.211 232.023L911.867 302.727H913.625C916.359 302.987 918.117 304.745 918.898 308L881.594 308.195L844.289 250.188L838.039 255.852V302.727H848.391C851.125 302.987 852.883 304.745 853.664 308ZM1006.98 308H946.438V302.727H963.039V258.391L927.688 196.086H918.508V190.812H973.195V196.086H958.352L986.867 250.188L1013.23 196.086H997.609V190.812H1031.98C1031.72 193.547 1029.97 195.305 1026.71 196.086C1022.67 196.216 1019.42 198.039 1016.95 201.555L990.383 257.023V302.727H1001.71C1004.45 302.987 1006.2 304.745 1006.98 308Z" fill="black"/>
<path d="M425.344 308V309H426.065L426.292 308.316L425.344 308ZM415.969 306.828L415.483 307.702L415.49 307.706L415.969 306.828ZM407.766 292.961L406.832 293.32L406.835 293.327L407.766 292.961ZM386.672 238.078L387.605 237.719L386.652 235.24L385.734 237.732L386.672 238.078ZM360.891 308V309H361.588L361.829 308.346L360.891 308ZM351.516 306.828L351.03 307.702L351.037 307.706L351.516 306.828ZM343.312 292.961L342.38 293.322L342.382 293.327L343.312 292.961ZM305.812 196.086L306.745 195.725L306.498 195.086H305.812V196.086ZM296.047 196.086H295.047V197.086H296.047V196.086ZM296.047 190.812V189.812H295.047V190.812H296.047ZM348.977 190.812H349.977V189.812H348.977V190.812ZM348.977 196.086V197.086H349.977V196.086H348.977ZM333.352 196.086V195.086H331.93L332.41 196.424L333.352 196.086ZM364.016 281.438L363.075 281.776L364.006 284.367L364.954 281.782L364.016 281.438ZM383.156 229.289L384.095 229.634L384.225 229.28L384.089 228.929L383.156 229.289ZM368.312 190.812V189.812H366.855L367.38 191.172L368.312 190.812ZM413.625 190.812H414.625V189.812H413.625V190.812ZM413.625 196.086L413.613 197.086L414.625 197.099V196.086H413.625ZM398 195.891L398.012 194.891L396.569 194.873L397.06 196.23L398 195.891ZM428.273 279.68L427.333 280.019L428.317 282.743L429.223 279.993L428.273 279.68ZM455.812 196.086L456.762 196.399L457.195 195.086H455.812V196.086ZM440.188 196.086H439.188V197.086H440.188V196.086ZM440.188 190.812V189.812H439.188V190.812H440.188ZM472.414 190.812H473.414V189.812H472.414V190.812ZM472.414 196.086V197.086H473.414V196.086H472.414ZM462.648 196.086V195.086H461.928L461.7 195.77L462.648 196.086ZM425.344 307H421.438V309H425.344V307ZM421.438 307C419.334 307 417.69 306.628 416.448 305.95L415.49 307.706C417.112 308.591 419.114 309 421.438 309V307ZM416.454 305.954C415.528 305.44 414.372 304.159 413.021 301.876C411.692 299.629 410.249 296.542 408.696 292.595L406.835 293.327C408.407 297.323 409.894 300.518 411.299 302.894C412.683 305.233 414.065 306.915 415.483 307.702L416.454 305.954ZM408.699 292.602L387.605 237.719L385.738 238.437L406.832 293.32L408.699 292.602ZM385.734 237.732L359.952 307.654L361.829 308.346L387.61 238.424L385.734 237.732ZM360.891 307H356.984V309H360.891V307ZM356.984 307C354.881 307 353.237 306.628 351.994 305.95L351.037 307.706C352.659 308.591 354.661 309 356.984 309V307ZM352.001 305.954C351.075 305.44 349.919 304.159 348.568 301.876C347.239 299.629 345.796 296.542 344.243 292.595L342.382 293.327C343.954 297.323 345.441 300.518 346.846 302.894C348.23 305.233 349.612 306.915 351.03 307.702L352.001 305.954ZM344.245 292.6L306.745 195.725L304.88 196.447L342.38 293.322L344.245 292.6ZM305.812 195.086H296.047V197.086H305.812V195.086ZM297.047 196.086V190.812H295.047V196.086H297.047ZM296.047 191.812H348.977V189.812H296.047V191.812ZM347.977 190.812V196.086H349.977V190.812H347.977ZM348.977 195.086H333.352V197.086H348.977V195.086ZM332.41 196.424L363.075 281.776L364.957 281.099L334.293 195.748L332.41 196.424ZM364.954 281.782L384.095 229.634L382.217 228.944L363.077 281.093L364.954 281.782ZM384.089 228.929L369.245 190.453L367.38 191.172L382.223 229.649L384.089 228.929ZM368.312 191.812H413.625V189.812H368.312V191.812ZM412.625 190.812V196.086H414.625V190.812H412.625ZM413.637 195.086L398.012 194.891L397.988 196.891L413.613 197.086L413.637 195.086ZM397.06 196.23L427.333 280.019L429.214 279.34L398.94 195.551L397.06 196.23ZM429.223 279.993L456.762 196.399L454.863 195.773L427.324 279.367L429.223 279.993ZM455.812 195.086H440.188V197.086H455.812V195.086ZM441.188 196.086V190.812H439.188V196.086H441.188ZM440.188 191.812H472.414V189.812H440.188V191.812ZM471.414 190.812V196.086H473.414V190.812H471.414ZM472.414 195.086H462.648V197.086H472.414V195.086ZM461.7 195.77L424.395 307.684L426.292 308.316L463.597 196.402L461.7 195.77ZM534.914 308V309H536.182L535.886 307.767L534.914 308ZM476.32 308H475.32V309H476.32V308ZM476.32 302.727V301.727H475.32V302.727H476.32ZM491.945 302.727V303.727H492.945V302.727H491.945ZM491.945 196.086H492.945V195.086H491.945V196.086ZM476.32 196.086H475.32V197.086H476.32V196.086ZM476.32 190.812V189.812H475.32V190.812H476.32ZM534.914 190.812H535.914V189.812H534.914V190.812ZM534.914 196.086V197.086H535.914V196.086H534.914ZM519.289 196.086V195.086H518.289V196.086H519.289ZM519.289 244.719H518.289V245.719H519.289V244.719ZM568.898 244.719V245.719H569.898V244.719H568.898ZM568.898 196.086H569.898V195.086H568.898V196.086ZM553.273 196.086H552.273V197.086H553.273V196.086ZM553.273 190.812V189.812H552.273V190.812H553.273ZM611.867 190.812H612.867V189.812H611.867V190.812ZM611.867 196.086V197.086H612.867V196.086H611.867ZM596.242 196.086V195.086H595.242V196.086H596.242ZM596.242 302.727H595.242V303.727H596.242V302.727ZM606.594 302.727L606.689 301.731L606.641 301.727H606.594V302.727ZM611.867 308V309H613.136L612.84 307.767L611.867 308ZM553.273 308H552.273V309H553.273V308ZM553.273 302.727V301.727H552.273V302.727H553.273ZM568.898 302.727V303.727H569.898V302.727H568.898ZM568.898 250.578H569.898V249.578H568.898V250.578ZM519.289 250.578V249.578H518.289V250.578H519.289ZM519.289 302.727H518.289V303.727H519.289V302.727ZM529.641 302.727L529.735 301.731L529.688 301.727H529.641V302.727ZM534.914 307H476.32V309H534.914V307ZM477.32 308V302.727H475.32V308H477.32ZM476.32 303.727H491.945V301.727H476.32V303.727ZM492.945 302.727V196.086H490.945V302.727H492.945ZM491.945 195.086H476.32V197.086H491.945V195.086ZM477.32 196.086V190.812H475.32V196.086H477.32ZM476.32 191.812H534.914V189.812H476.32V191.812ZM533.914 190.812V196.086H535.914V190.812H533.914ZM534.914 195.086H519.289V197.086H534.914V195.086ZM518.289 196.086V244.719H520.289V196.086H518.289ZM519.289 245.719H568.898V243.719H519.289V245.719ZM569.898 244.719V196.086H567.898V244.719H569.898ZM568.898 195.086H553.273V197.086H568.898V195.086ZM554.273 196.086V190.812H552.273V196.086H554.273ZM553.273 191.812H611.867V189.812H553.273V191.812ZM610.867 190.812V196.086H612.867V190.812H610.867ZM611.867 195.086H596.242V197.086H611.867V195.086ZM595.242 196.086V302.727H597.242V196.086H595.242ZM596.242 303.727H606.594V301.727H596.242V303.727ZM606.499 303.722C607.661 303.833 608.559 304.25 609.256 304.947C609.966 305.658 610.533 306.725 610.895 308.233L612.84 307.767C612.42 306.02 611.717 304.58 610.67 303.533C609.609 302.472 608.261 301.881 606.689 301.731L606.499 303.722ZM611.867 307H553.273V309H611.867V307ZM554.273 308V302.727H552.273V308H554.273ZM553.273 303.727H568.898V301.727H553.273V303.727ZM569.898 302.727V250.578H567.898V302.727H569.898ZM568.898 249.578H519.289V251.578H568.898V249.578ZM518.289 250.578V302.727H520.289V250.578H518.289ZM519.289 303.727H529.641V301.727H519.289V303.727ZM529.546 303.722C530.707 303.833 531.606 304.25 532.303 304.947C533.013 305.658 533.58 306.725 533.942 308.233L535.886 307.767C535.467 306.02 534.764 304.58 533.717 303.533C532.656 302.472 531.308 301.881 529.735 301.731L529.546 303.722ZM678.273 308V309H679.542L679.246 307.767L678.273 308ZM619.68 308H618.68V309H619.68V308ZM619.68 302.727V301.727H618.68V302.727H619.68ZM635.305 302.727V303.727H636.305V302.727H635.305ZM635.305 196.086H636.305V195.086H635.305V196.086ZM619.68 196.086H618.68V197.086H619.68V196.086ZM619.68 190.812V189.812H618.68V190.812H619.68ZM678.273 190.812H679.273V189.812H678.273V190.812ZM678.273 196.086V197.086H679.273V196.086H678.273ZM662.648 196.086V195.086H661.648V196.086H662.648ZM662.648 302.727H661.648V303.727H662.648V302.727ZM673 302.727L673.095 301.731L673.048 301.727H673V302.727ZM678.273 307H619.68V309H678.273V307ZM620.68 308V302.727H618.68V308H620.68ZM619.68 303.727H635.305V301.727H619.68V303.727ZM636.305 302.727V196.086H634.305V302.727H636.305ZM635.305 195.086H619.68V197.086H635.305V195.086ZM620.68 196.086V190.812H618.68V196.086H620.68ZM619.68 191.812H678.273V189.812H619.68V191.812ZM677.273 190.812V196.086H679.273V190.812H677.273ZM678.273 195.086H662.648V197.086H678.273V195.086ZM661.648 196.086V302.727H663.648V196.086H661.648ZM662.648 303.727H673V301.727H662.648V303.727ZM672.905 303.722C674.067 303.833 674.965 304.25 675.662 304.947C676.373 305.658 676.939 306.725 677.301 308.233L679.246 307.767C678.827 306.02 678.123 304.58 677.076 303.533C676.015 302.472 674.668 301.881 673.095 301.731L672.905 303.722ZM773.977 297.258L774.668 297.981L774.676 297.972L773.977 297.258ZM699.562 299.992L700.115 299.158L698.562 298.13V299.992H699.562ZM699.172 305.266L700.126 305.564L700.142 305.514L700.152 305.462L699.172 305.266ZM692.922 308.391H691.922V309.391H692.922V308.391ZM692.922 266.984V265.984H691.922V266.984H692.922ZM700.539 266.984L701.536 266.909L701.466 265.984H700.539V266.984ZM704.836 285.344L703.92 285.746L703.922 285.749L704.836 285.344ZM743.898 302.727L744.227 303.671L744.238 303.667L744.25 303.663L743.898 302.727ZM754.641 275.969L755.553 275.558L755.544 275.54L755.535 275.522L754.641 275.969ZM733.742 258.977L734.206 258.09L734.197 258.086L733.742 258.977ZM712.648 247.844L713.203 247.012L713.19 247.003L713.176 246.994L712.648 247.844ZM701.711 201.164L700.992 200.468L700.986 200.475L701.711 201.164ZM771.438 196.477L771.012 197.382L772.438 198.051V196.477H771.438ZM771.633 193.352L770.666 193.097L770.651 193.153L770.643 193.21L771.633 193.352ZM778.078 189.641H779.078V188.641H778.078V189.641ZM778.078 224.992V225.992H779.078V224.992H778.078ZM770.461 224.992L769.461 225.011L769.479 225.992H770.461V224.992ZM765.383 206.828L766.225 206.288L766.221 206.282L766.217 206.277L765.383 206.828ZM733.547 195.891L733.246 194.937L733.238 194.939L733.231 194.942L733.547 195.891ZM724.367 219.719L723.464 220.149L723.469 220.158L724.367 219.719ZM744.875 236.711L745.345 235.828L745.339 235.825L744.875 236.711ZM765.383 247.648L765.927 246.809L765.893 246.787L765.857 246.768L765.383 247.648ZM782.156 275.383C782.156 283.709 779.204 290.742 773.277 296.543L774.676 297.972C780.989 291.794 784.156 284.244 784.156 275.383H782.156ZM773.286 296.535C764.675 304.766 752.262 308.953 735.891 308.953V310.953C752.592 310.953 765.57 306.677 774.668 297.981L773.286 296.535ZM735.891 308.953C721.858 308.953 709.949 305.672 700.115 299.158L699.01 300.826C709.228 307.593 721.538 310.953 735.891 310.953V308.953ZM698.562 299.992C698.562 302.177 698.433 303.86 698.191 305.07L700.152 305.462C700.431 304.067 700.562 302.234 700.562 299.992H698.562ZM698.217 304.967C697.979 305.731 697.491 306.307 696.674 306.715C695.824 307.14 694.597 307.391 692.922 307.391V309.391C694.763 309.391 696.335 309.12 697.568 308.504C698.835 307.871 699.714 306.884 700.126 305.564L698.217 304.967ZM693.922 308.391V266.984H691.922V308.391H693.922ZM692.922 267.984H700.539V265.984H692.922V267.984ZM699.542 267.06C700.07 274.053 701.523 280.286 703.92 285.746L705.752 284.942C703.461 279.724 702.05 273.718 701.536 266.909L699.542 267.06ZM703.922 285.749C706.784 292.206 710.723 297.109 715.765 300.391C720.807 303.673 726.881 305.289 733.938 305.289V303.289C727.192 303.289 721.515 301.748 716.856 298.715C712.197 295.682 708.487 291.111 705.75 284.938L703.922 285.749ZM733.938 305.289C737.679 305.289 741.112 304.755 744.227 303.671L743.57 301.782C740.695 302.782 737.488 303.289 733.938 303.289V305.289ZM744.25 303.663C748.575 302.041 751.886 299.58 754.105 296.25C756.323 292.924 757.398 288.812 757.398 283.977H755.398C755.398 288.516 754.391 292.216 752.441 295.141C750.495 298.061 747.555 300.287 743.547 301.79L744.25 303.663ZM757.398 283.977C757.398 281.094 756.78 278.286 755.553 275.558L753.729 276.379C754.845 278.86 755.398 281.39 755.398 283.977H757.398ZM755.535 275.522C752.649 269.749 745.427 263.962 734.206 258.091L733.279 259.863C744.453 265.71 751.164 271.251 753.746 276.416L755.535 275.522ZM734.197 258.086C721.658 251.686 714.703 248.012 713.203 247.012L712.094 248.676C713.719 249.759 720.826 253.507 733.288 259.867L734.197 258.086ZM713.176 246.994C700.986 239.424 695.094 230.455 695.094 220.109H693.094C693.094 231.378 699.571 240.899 712.121 248.693L713.176 246.994ZM695.094 220.109C695.094 213.077 697.532 207.008 702.435 201.853L700.986 200.475C695.733 205.997 693.094 212.558 693.094 220.109H695.094ZM702.429 201.86C710.121 193.916 721.668 189.859 737.258 189.859V187.859C721.337 187.859 709.186 192.006 700.993 200.468L702.429 201.86ZM737.258 189.859C749.09 189.859 760.338 192.366 771.012 197.382L771.863 195.571C760.922 190.431 749.384 187.859 737.258 187.859V189.859ZM772.438 196.477C772.438 195.34 772.501 194.347 772.623 193.493L770.643 193.21C770.504 194.179 770.438 195.269 770.438 196.477H772.438ZM772.6 193.606C772.86 192.618 773.397 191.915 774.231 191.435C775.099 190.936 776.353 190.641 778.078 190.641V188.641C776.157 188.641 774.514 188.964 773.233 189.702C771.92 190.458 771.057 191.611 770.666 193.097L772.6 193.606ZM777.078 189.641V224.992H779.078V189.641H777.078ZM778.078 223.992H770.461V225.992H778.078V223.992ZM771.461 224.974C771.328 217.789 769.595 211.547 766.225 206.288L764.541 207.368C767.681 212.266 769.334 218.133 769.461 225.011L771.461 224.974ZM766.217 206.277C760.672 197.891 752.331 193.719 741.359 193.719V195.719C751.742 195.719 759.417 199.619 764.549 207.38L766.217 206.277ZM741.359 193.719C738.528 193.719 735.822 194.123 733.246 194.937L733.848 196.844C736.219 196.095 738.722 195.719 741.359 195.719V193.719ZM733.231 194.942C729.371 196.228 726.395 198.221 724.39 200.965C722.384 203.71 721.414 207.12 721.414 211.125H723.414C723.414 207.448 724.3 204.478 726.005 202.145C727.711 199.81 730.301 198.027 733.863 196.839L733.231 194.942ZM721.414 211.125C721.414 214.27 722.099 217.282 723.464 220.149L725.27 219.289C724.031 216.687 723.414 213.969 723.414 211.125H721.414ZM723.469 220.158C726.352 226.061 733.44 231.85 744.411 237.597L745.339 235.825C734.435 230.113 727.851 224.574 725.266 219.28L723.469 220.158ZM744.405 237.594C756.386 243.975 763.219 247.619 764.909 248.529L765.857 246.768C764.162 245.855 757.323 242.208 745.345 235.828L744.405 237.594ZM764.839 248.488C776.501 256.049 782.156 265.016 782.156 275.383H784.156C784.156 264.135 777.962 254.613 765.927 246.809L764.839 248.488ZM853.664 308V309H854.932L854.636 307.767L853.664 308ZM795.07 308H794.07V309H795.07V308ZM795.07 302.727V301.727H794.07V302.727H795.07ZM810.695 302.727V303.727H811.695V302.727H810.695ZM810.695 196.086H811.695V195.086H810.695V196.086ZM795.07 196.086H794.07V197.086H795.07V196.086ZM795.07 190.812V189.812H794.07V190.812H795.07ZM853.664 190.812H854.664V189.812H853.664V190.812ZM853.664 196.086V197.086H854.664V196.086H853.664ZM838.039 196.086V195.086H837.039V196.086H838.039ZM838.039 246.477H837.039V248.725L838.709 247.219L838.039 246.477ZM893.898 196.086L894.568 196.828L896.5 195.086H893.898V196.086ZM878.273 196.086H877.273V197.086H878.273V196.086ZM878.273 190.812V189.812H877.273V190.812H878.273ZM914.406 190.812H915.406V189.812H914.406V190.812ZM914.211 192.766L913.23 192.57L913.222 192.609L913.218 192.649L914.211 192.766ZM906.594 196.281L906.452 195.291L906.401 195.299L906.351 195.311L906.594 196.281ZM893.898 205.266L894.568 206.008L894.572 206.005L893.898 205.266ZM864.211 232.023L863.541 231.281L862.896 231.862L863.382 232.582L864.211 232.023ZM911.867 302.727L911.038 303.285L911.335 303.727H911.867V302.727ZM913.625 302.727L913.72 301.731L913.673 301.727H913.625V302.727ZM918.898 308L918.904 309L920.165 308.993L919.871 307.767L918.898 308ZM881.594 308.195L880.753 308.736L881.05 309.198L881.599 309.195L881.594 308.195ZM844.289 250.188L845.13 249.647L844.492 248.654L843.618 249.447L844.289 250.188ZM838.039 255.852L837.368 255.111L837.039 255.408V255.852H838.039ZM838.039 302.727H837.039V303.727H838.039V302.727ZM848.391 302.727L848.485 301.731L848.438 301.727H848.391V302.727ZM853.664 307H795.07V309H853.664V307ZM796.07 308V302.727H794.07V308H796.07ZM795.07 303.727H810.695V301.727H795.07V303.727ZM811.695 302.727V196.086H809.695V302.727H811.695ZM810.695 195.086H795.07V197.086H810.695V195.086ZM796.07 196.086V190.812H794.07V196.086H796.07ZM795.07 191.812H853.664V189.812H795.07V191.812ZM852.664 190.812V196.086H854.664V190.812H852.664ZM853.664 195.086H838.039V197.086H853.664V195.086ZM837.039 196.086V246.477H839.039V196.086H837.039ZM838.709 247.219L894.568 196.828L893.229 195.343L837.369 245.734L838.709 247.219ZM893.898 195.086H878.273V197.086H893.898V195.086ZM879.273 196.086V190.812H877.273V196.086H879.273ZM878.273 191.812H914.406V189.812H878.273V191.812ZM913.406 190.812C913.406 191.396 913.348 191.982 913.23 192.57L915.192 192.962C915.334 192.247 915.406 191.531 915.406 190.812H913.406ZM913.218 192.649C913.118 193.495 912.77 194.045 912.199 194.419C911.581 194.823 910.599 195.086 909.133 195.086V197.086C910.792 197.086 912.218 196.796 913.293 196.093C914.415 195.359 915.043 194.25 915.204 192.882L913.218 192.649ZM909.133 195.086C908.297 195.086 907.403 195.156 906.452 195.291L906.735 197.271C907.608 197.147 908.406 197.086 909.133 197.086V195.086ZM906.351 195.311C904.863 195.683 903.03 196.684 900.889 198.199C898.727 199.729 896.171 201.842 893.225 204.526L894.572 206.005C897.485 203.35 899.975 201.297 902.044 199.832C904.135 198.352 905.72 197.53 906.836 197.251L906.351 195.311ZM893.229 204.523L863.541 231.281L864.88 232.766L894.568 206.008L893.229 204.523ZM863.382 232.582L911.038 303.285L912.696 302.168L865.04 231.465L863.382 232.582ZM911.867 303.727H913.625V301.727H911.867V303.727ZM913.53 303.722C914.692 303.833 915.59 304.25 916.287 304.947C916.998 305.658 917.564 306.725 917.926 308.233L919.871 307.767C919.452 306.02 918.748 304.58 917.701 303.533C916.64 302.472 915.293 301.881 913.72 301.731L913.53 303.722ZM918.893 307L881.589 307.195L881.599 309.195L918.904 309L918.893 307ZM882.435 307.654L845.13 249.647L843.448 250.728L880.753 308.736L882.435 307.654ZM843.618 249.447L837.368 255.111L838.711 256.593L844.961 250.928L843.618 249.447ZM837.039 255.852V302.727H839.039V255.852H837.039ZM838.039 303.727H848.391V301.727H838.039V303.727ZM848.296 303.722C849.457 303.833 850.356 304.25 851.053 304.947C851.763 305.658 852.33 306.725 852.692 308.233L854.636 307.767C854.217 306.02 853.514 304.58 852.467 303.533C851.406 302.472 850.058 301.881 848.485 301.731L848.296 303.722ZM1006.98 308V309H1008.25L1007.96 307.767L1006.98 308ZM946.438 308H945.438V309H946.438V308ZM946.438 302.727V301.727H945.438V302.727H946.438ZM963.039 302.727V303.727H964.039V302.727H963.039ZM963.039 258.391H964.039V258.127L963.909 257.897L963.039 258.391ZM927.688 196.086L928.557 195.592L928.27 195.086H927.688V196.086ZM918.508 196.086H917.508V197.086H918.508V196.086ZM918.508 190.812V189.812H917.508V190.812H918.508ZM973.195 190.812H974.195V189.812H973.195V190.812ZM973.195 196.086V197.086H974.195V196.086H973.195ZM958.352 196.086V195.086H956.694L957.467 196.552L958.352 196.086ZM986.867 250.188L985.983 250.654L986.902 252.398L987.766 250.626L986.867 250.188ZM1013.23 196.086L1014.13 196.524L1014.83 195.086H1013.23V196.086ZM997.609 196.086H996.609V197.086H997.609V196.086ZM997.609 190.812V189.812H996.609V190.812H997.609ZM1031.98 190.812L1032.98 190.907L1033.08 189.812H1031.98V190.812ZM1026.71 196.086L1026.74 197.085L1026.85 197.082L1026.94 197.058L1026.71 196.086ZM1016.95 201.555L1016.13 200.979L1016.08 201.047L1016.04 201.123L1016.95 201.555ZM990.383 257.023L989.481 256.592L989.383 256.796V257.023H990.383ZM990.383 302.727H989.383V303.727H990.383V302.727ZM1001.71 302.727L1001.81 301.731L1001.76 301.727H1001.71V302.727ZM1006.98 307H946.438V309H1006.98V307ZM947.438 308V302.727H945.438V308H947.438ZM946.438 303.727H963.039V301.727H946.438V303.727ZM964.039 302.727V258.391H962.039V302.727H964.039ZM963.909 257.897L928.557 195.592L926.818 196.579L962.169 258.884L963.909 257.897ZM927.688 195.086H918.508V197.086H927.688V195.086ZM919.508 196.086V190.812H917.508V196.086H919.508ZM918.508 191.812H973.195V189.812H918.508V191.812ZM972.195 190.812V196.086H974.195V190.812H972.195ZM973.195 195.086H958.352V197.086H973.195V195.086ZM957.467 196.552L985.983 250.654L987.752 249.721L959.236 195.62L957.467 196.552ZM987.766 250.626L1014.13 196.524L1012.34 195.648L985.968 249.749L987.766 250.626ZM1013.23 195.086H997.609V197.086H1013.23V195.086ZM998.609 196.086V190.812H996.609V196.086H998.609ZM997.609 191.812H1031.98V189.812H997.609V191.812ZM1030.99 190.718C1030.88 191.879 1030.46 192.778 1029.76 193.475C1029.05 194.185 1027.99 194.752 1026.48 195.114L1026.94 197.058C1028.69 196.639 1030.13 195.936 1031.18 194.889C1032.24 193.828 1032.83 192.48 1032.98 190.907L1030.99 190.718ZM1026.68 195.086C1022.31 195.228 1018.77 197.226 1016.13 200.979L1017.76 202.13C1020.07 198.852 1023.04 197.205 1026.74 197.085L1026.68 195.086ZM1016.04 201.123L989.481 256.592L991.285 257.455L1017.85 201.987L1016.04 201.123ZM989.383 257.023V302.727H991.383V257.023H989.383ZM990.383 303.727H1001.71V301.727H990.383V303.727ZM1001.62 303.722C1002.78 303.833 1003.68 304.25 1004.37 304.947C1005.08 305.658 1005.65 306.725 1006.01 308.233L1007.96 307.767C1007.54 306.02 1006.83 304.58 1005.79 303.533C1004.73 302.472 1003.38 301.881 1001.81 301.731L1001.62 303.722Z" fill="white"/>
</g>
<defs>
<linearGradient id="paint0_linear_1_2" x1="13.625" y1="220.65" x2="82.4234" y2="224.35" gradientUnits="userSpaceOnUse">
<stop stop-color="white"/>
<stop offset="1" stop-color="white" stop-opacity="0"/>
</linearGradient>
<linearGradient id="paint1_linear_1_2" x1="204.292" y1="222.5" x2="135.494" y2="226.2" gradientUnits="userSpaceOnUse">
<stop stop-color="white"/>
<stop offset="1" stop-color="white" stop-opacity="0"/>
</linearGradient>
<clipPath id="clip0_1_2">
<rect width="1080" height="496" fill="white"/>
</clipPath>
</defs>
</svg>
